<svg xmlns="http://www.w3.org/2000/svg" width="578" height="402" class="railroad-diagram" viewBox="0 0 578 402"><g transform="translate(.5 .5)"><style type="text/css">svg.railroad-diagram path,svg.railroad-diagram rect{stroke-width:3;stroke:#000;fill:transparent}svg.railroad-diagram rect{fill:#def}svg.railroad-diagram text{font-family:&quot;Consolas&quot;,&quot;Monospace&quot;;font-size:14px;font-weight:700;text-anchor:middle}svg.railroad-diagram g.non-terminal text{font-style:italic}</style><path d="M 20 21 v 20 m 10 -20 v 20 m -10 -10 h 20.5"/><path d="M40 31h10"/><g><path d="M50 31h0"/><path d="M50 31h10"/><g><path d="M60 31h95"/><path d="M423 31h95"/><g class="terminal"><path d="M155 31h0"/><path d="M215 31h0"/><rect width="60" height="22" x="155" y="20" rx="10" ry="10"/><text x="185" y="35">ALTER</text></g><path d="M215 31h10"/><path d="M225 31h10"/><g class="terminal"><path d="M235 31h0"/><path d="M295 31h0"/><rect width="60" height="22" x="235" y="20" rx="10" ry="10"/><text x="265" y="35">TABLE</text></g><path d="M295 31h10"/><path d="M305 31h10"/><g class="non-terminal"><path d="M315 31h0"/><path d="M423 31h0"/><rect width="108" height="22" x="315" y="20"/><a href="https://rspeele.gitbooks.io/rezoom-sql/doc/Language/Name.html#object-name"><text x="369" y="35">object-name</text><text x="369" y="35">object-name</text></a></g></g><path d="M518 31a10 10 0 0 1 10 10v0a10 10 0 0 1 -10 10h-458a10 10 0 0 0 -10 10v0a10 10 0 0 0 10 10"/><g><path d="M60 71h0"/><path d="M518 71h0"/><path d="M60 71h20"/><g><path d="M80 71h20"/><path d="M478 71h20"/><g class="terminal"><path d="M100 71h0"/><path d="M144 71h0"/><rect width="44" height="22" x="100" y="60" rx="10" ry="10"/><text x="122" y="75">ADD</text></g><path d="M144 71h10"/><g><path d="M154 71h0"/><path d="M478 71h0"/><path d="M154 71h20"/><g><path d="M174 71h48"/><path d="M410 71h48"/><g class="terminal"><path d="M222 71h0"/><path d="M290 71h0"/><rect width="68" height="22" x="222" y="60" rx="10" ry="10"/><text x="256" y="75">COLUMN</text></g><path d="M290 71h10"/><path d="M300 71h10"/><g class="non-terminal"><path d="M310 71h0"/><path d="M410 71h0"/><rect width="100" height="22" x="310" y="60"/><a href="https://rspeele.gitbooks.io/rezoom-sql/doc/Language/CreateTableStmt.html#column-def"><text x="360" y="75">column-def</text><text x="360" y="75">column-def</text></a></g></g><path d="M458 71h20"/><path d="M154 71a10 10 0 0 1 10 10v10a10 10 0 0 0 10 10"/><g><path d="M174 101h0"/><path d="M458 101h0"/><g class="terminal"><path d="M174 101h0"/><path d="M250 101h0"/><rect width="76" height="22" x="174" y="90" rx="10" ry="10"/><text x="212" y="105">DEFAULT</text></g><path d="M250 101h10"/><path d="M260 101h10"/><g class="terminal"><path d="M270 101h0"/><path d="M314 101h0"/><rect width="44" height="22" x="270" y="90" rx="10" ry="10"/><text x="292" y="105">FOR</text></g><path d="M314 101h10"/><path d="M324 101h10"/><g class="non-terminal"><path d="M334 101h0"/><path d="M386 101h0"/><rect width="52" height="22" x="334" y="90"/><a href="https://rspeele.gitbooks.io/rezoom-sql/doc/Language/Name.html#name"><text x="360" y="105">name</text><text x="360" y="105">name</text></a></g><path d="M386 101h10"/><path d="M396 101h10"/><g class="non-terminal"><path d="M406 101h0"/><path d="M458 101h0"/><rect width="52" height="22" x="406" y="90"/><a href="https://rspeele.gitbooks.io/rezoom-sql/doc/Language/Expr.html#expr"><text x="432" y="105">expr</text><text x="432" y="105">expr</text></a></g></g><path d="M458 101a10 10 0 0 0 10 -10v-10a10 10 0 0 1 10 -10"/><path d="M154 71a10 10 0 0 1 10 10v40a10 10 0 0 0 10 10"/><g class="non-terminal"><path d="M174 131h68"/><path d="M390 131h68"/><rect width="148" height="22" x="242" y="120"/><a href="https://rspeele.gitbooks.io/rezoom-sql/doc/Language/CreateTableStmt.html#table-constraint"><text x="316" y="135">table-constraint</text><text x="316" y="135">table-constraint</text></a></g><path d="M458 131a10 10 0 0 0 10 -10v-40a10 10 0 0 1 10 -10"/></g></g><path d="M498 71h20"/><path d="M60 71a10 10 0 0 1 10 10v70a10 10 0 0 0 10 10"/><g><path d="M80 161h52"/><path d="M446 161h52"/><g class="terminal"><path d="M132 161h0"/><path d="M184 161h0"/><rect width="52" height="22" x="132" y="150" rx="10" ry="10"/><text x="158" y="165">DROP</text></g><path d="M184 161h10"/><g><path d="M194 161h0"/><path d="M446 161h0"/><path d="M194 161h20"/><g><path d="M214 161h36"/><path d="M390 161h36"/><g class="terminal"><path d="M250 161h0"/><path d="M318 161h0"/><rect width="68" height="22" x="250" y="150" rx="10" ry="10"/><text x="284" y="165">COLUMN</text></g><path d="M318 161h10"/><path d="M328 161h10"/><g class="non-terminal"><path d="M338 161h0"/><path d="M390 161h0"/><rect width="52" height="22" x="338" y="150"/><a href="https://rspeele.gitbooks.io/rezoom-sql/doc/Language/Name.html#name"><text x="364" y="165">name</text><text x="364" y="165">name</text></a></g></g><path d="M426 161h20"/><path d="M194 161a10 10 0 0 1 10 10v10a10 10 0 0 0 10 10"/><g><path d="M214 191h20"/><path d="M406 191h20"/><g class="terminal"><path d="M234 191h0"/><path d="M334 191h0"/><rect width="100" height="22" x="234" y="180" rx="10" ry="10"/><text x="284" y="195">CONSTRAINT</text></g><path d="M334 191h10"/><path d="M344 191h10"/><g class="non-terminal"><path d="M354 191h0"/><path d="M406 191h0"/><rect width="52" height="22" x="354" y="180"/><a href="https://rspeele.gitbooks.io/rezoom-sql/doc/Language/Name.html#name"><text x="380" y="195">name</text><text x="380" y="195">name</text></a></g></g><path d="M426 191a10 10 0 0 0 10 -10v-10a10 10 0 0 1 10 -10"/><path d="M194 161a10 10 0 0 1 10 10v40a10 10 0 0 0 10 10"/><g><path d="M214 221h0"/><path d="M426 221h0"/><g class="terminal"><path d="M214 221h0"/><path d="M290 221h0"/><rect width="76" height="22" x="214" y="210" rx="10" ry="10"/><text x="252" y="225">DEFAULT</text></g><path d="M290 221h10"/><path d="M300 221h10"/><g class="terminal"><path d="M310 221h0"/><path d="M354 221h0"/><rect width="44" height="22" x="310" y="210" rx="10" ry="10"/><text x="332" y="225">FOR</text></g><path d="M354 221h10"/><path d="M364 221h10"/><g class="non-terminal"><path d="M374 221h0"/><path d="M426 221h0"/><rect width="52" height="22" x="374" y="210"/><a href="https://rspeele.gitbooks.io/rezoom-sql/doc/Language/Name.html#name"><text x="400" y="225">name</text><text x="400" y="225">name</text></a></g></g><path d="M426 221a10 10 0 0 0 10 -10v-40a10 10 0 0 1 10 -10"/></g></g><path d="M498 161a10 10 0 0 0 10 -10v-70a10 10 0 0 1 10 -10"/><path d="M60 71a10 10 0 0 1 10 10v160a10 10 0 0 0 10 10"/><g><path d="M80 251h0"/><path d="M498 251h0"/><g class="terminal"><path d="M80 251h0"/><path d="M140 251h0"/><rect width="60" height="22" x="80" y="240" rx="10" ry="10"/><text x="110" y="255">ALTER</text></g><path d="M140 251h10"/><path d="M150 251h10"/><g class="terminal"><path d="M160 251h0"/><path d="M228 251h0"/><rect width="68" height="22" x="160" y="240" rx="10" ry="10"/><text x="194" y="255">COLUMN</text></g><path d="M228 251h10"/><path d="M238 251h10"/><g class="non-terminal"><path d="M248 251h0"/><path d="M300 251h0"/><rect width="52" height="22" x="248" y="240"/><a href="https://rspeele.gitbooks.io/rezoom-sql/doc/Language/Name.html#name"><text x="274" y="255">name</text><text x="274" y="255">name</text></a></g><path d="M300 251h10"/><g><path d="M310 251h0"/><path d="M498 251h0"/><path d="M310 251h20"/><g class="terminal"><path d="M330 251h48"/><path d="M430 251h48"/><rect width="52" height="22" x="378" y="240" rx="10" ry="10"/><text x="404" y="255">NULL</text></g><path d="M478 251h20"/><path d="M310 251a10 10 0 0 1 10 10v10a10 10 0 0 0 10 10"/><g><path d="M330 281h16"/><path d="M462 281h16"/><g class="terminal"><path d="M346 281h0"/><path d="M390 281h0"/><rect width="44" height="22" x="346" y="270" rx="10" ry="10"/><text x="368" y="285">NOT</text></g><path d="M390 281h10"/><path d="M400 281h10"/><g class="terminal"><path d="M410 281h0"/><path d="M462 281h0"/><rect width="52" height="22" x="410" y="270" rx="10" ry="10"/><text x="436" y="285">NULL</text></g></g><path d="M478 281a10 10 0 0 0 10 -10v-10a10 10 0 0 1 10 -10"/><path d="M310 251a10 10 0 0 1 10 10v40a10 10 0 0 0 10 10"/><g><path d="M330 311h0"/><path d="M478 311h0"/><g class="terminal"><path d="M330 311h0"/><path d="M406 311h0"/><rect width="76" height="22" x="330" y="300" rx="10" ry="10"/><text x="368" y="315">COLLATE</text></g><path d="M406 311h10"/><path d="M416 311h10"/><g class="non-terminal"><path d="M426 311h0"/><path d="M478 311h0"/><rect width="52" height="22" x="426" y="300"/><a href="https://rspeele.gitbooks.io/rezoom-sql/doc/Language/Name.html#name"><text x="452" y="315">name</text><text x="452" y="315">name</text></a></g></g><path d="M478 311a10 10 0 0 0 10 -10v-40a10 10 0 0 1 10 -10"/><path d="M310 251a10 10 0 0 1 10 10v70a10 10 0 0 0 10 10"/><g class="non-terminal"><path d="M330 341h28"/><path d="M450 341h28"/><rect width="92" height="22" x="358" y="330"/><a href="https://rspeele.gitbooks.io/rezoom-sql/doc/Language/DataTypes.html#type-name"><text x="404" y="345">type-name</text><text x="404" y="345">type-name</text></a></g><path d="M478 341a10 10 0 0 0 10 -10v-70a10 10 0 0 1 10 -10"/></g></g><path d="M498 251a10 10 0 0 0 10 -10v-160a10 10 0 0 1 10 -10"/><path d="M60 71a10 10 0 0 1 10 10v280a10 10 0 0 0 10 10"/><g><path d="M80 371h111"/><path d="M387 371h111"/><g class="terminal"><path d="M191 371h0"/><path d="M259 371h0"/><rect width="68" height="22" x="191" y="360" rx="10" ry="10"/><text x="225" y="375">RENAME</text></g><path d="M259 371h10"/><path d="M269 371h10"/><g class="terminal"><path d="M279 371h0"/><path d="M315 371h0"/><rect width="36" height="22" x="279" y="360" rx="10" ry="10"/><text x="297" y="375">TO</text></g><path d="M315 371h10"/><path d="M325 371h10"/><g class="non-terminal"><path d="M335 371h0"/><path d="M387 371h0"/><rect width="52" height="22" x="335" y="360"/><a href="https://rspeele.gitbooks.io/rezoom-sql/doc/Language/Name.html#name"><text x="361" y="375">name</text><text x="361" y="375">name</text></a></g></g><path d="M498 371a10 10 0 0 0 10 -10v-280a10 10 0 0 1 10 -10"/></g><path d="M518 71h10"/><path d="M528 71h0"/></g><path d="M528 71h10"/><path d="M 538 71 h 20 m -10 -10 v 20 m 10 -20 v 20"/></g></svg>