<svg xmlns="http://www.w3.org/2000/svg" width="778" height="172" class="railroad-diagram" viewBox="0 0 778 172"><g transform="translate(.5 .5)"><style type="text/css">svg.railroad-diagram path,svg.railroad-diagram rect{stroke-width:3;stroke:#000;fill:transparent}svg.railroad-diagram rect{fill:#def}svg.railroad-diagram text{font-family:&quot;Consolas&quot;,&quot;Monospace&quot;;font-size:14px;font-weight:700;text-anchor:middle}svg.railroad-diagram g.non-terminal text{font-style:italic}</style><path d="M 20 21 v 20 m 10 -20 v 20 m -10 -10 h 20.5"/><g><path d="M40 31h0"/><path d="M252 31h0"/><path d="M40 31h20"/><g><path d="M60 31h172"/></g><path d="M232 31h20"/><path d="M40 31a10 10 0 0 1 10 10v0a10 10 0 0 0 10 10"/><g><path d="M60 51h0"/><path d="M232 51h0"/><g class="terminal"><path d="M60 51h0"/><path d="M160 51h0"/><rect width="100" height="22" x="60" y="40" rx="10" ry="10"/><text x="110" y="55">CONSTRAINT</text></g><path d="M160 51h10"/><path d="M170 51h10"/><g class="non-terminal"><path d="M180 51h0"/><path d="M232 51h0"/><rect width="52" height="22" x="180" y="40"/><a href="https://rspeele.gitbooks.io/rezoom-sql/doc/Language/Name.html#name"><text x="206" y="55">name</text><text x="206" y="55">name</text></a></g></g><path d="M232 51a10 10 0 0 0 10 -10v0a10 10 0 0 1 10 -10"/></g><g><path d="M252 31h0"/><path d="M738 31h0"/><path d="M252 31h20"/><g class="terminal"><path d="M272 31h189"/><path d="M529 31h189"/><rect width="68" height="22" x="461" y="20" rx="10" ry="10"/><text x="495" y="35">UNIQUE</text></g><path d="M718 31h20"/><path d="M252 31a10 10 0 0 1 10 10v10a10 10 0 0 0 10 10"/><g><path d="M272 61h0"/><path d="M718 61h0"/><g class="terminal"><path d="M272 61h0"/><path d="M348 61h0"/><rect width="76" height="22" x="272" y="50" rx="10" ry="10"/><text x="310" y="65">PRIMARY</text></g><path d="M348 61h10"/><path d="M358 61h10"/><g class="terminal"><path d="M368 61h0"/><path d="M412 61h0"/><rect width="44" height="22" x="368" y="50" rx="10" ry="10"/><text x="390" y="65">KEY</text></g><path d="M412 61h10"/><g><path d="M422 61h0"/><path d="M554 61h0"/><path d="M422 61h20"/><g><path d="M442 61h92"/></g><path d="M534 61h20"/><path d="M422 61a10 10 0 0 1 10 10v0a10 10 0 0 0 10 10"/><g><path d="M442 81h0"/><path d="M534 81h0"/><path d="M442 81h20"/><g class="terminal"><path d="M462 81h4"/><path d="M510 81h4"/><rect width="44" height="22" x="466" y="70" rx="10" ry="10"/><text x="488" y="85">ASC</text></g><path d="M514 81h20"/><path d="M442 81a10 10 0 0 1 10 10v10a10 10 0 0 0 10 10"/><g class="terminal"><path d="M462 111h0"/><path d="M514 111h0"/><rect width="52" height="22" x="462" y="100" rx="10" ry="10"/><text x="488" y="115">DESC</text></g><path d="M514 111a10 10 0 0 0 10 -10v-10a10 10 0 0 1 10 -10"/></g><path d="M534 81a10 10 0 0 0 10 -10v0a10 10 0 0 1 10 -10"/></g><g><path d="M554 61h0"/><path d="M718 61h0"/><path d="M554 61h20"/><g><path d="M574 61h124"/></g><path d="M698 61h20"/><path d="M554 61a10 10 0 0 1 10 10v0a10 10 0 0 0 10 10"/><g class="terminal"><path d="M574 81h0"/><path d="M698 81h0"/><rect width="124" height="22" x="574" y="70" rx="10" ry="10"/><text x="636" y="85">AUTOINCREMENT</text></g><path d="M698 81a10 10 0 0 0 10 -10v0a10 10 0 0 1 10 -10"/></g></g><path d="M718 61a10 10 0 0 0 10 -10v-10a10 10 0 0 1 10 -10"/><path d="M252 31a10 10 0 0 1 10 10v90a10 10 0 0 0 10 10"/><g class="non-terminal"><path d="M272 141h141"/><path d="M577 141h141"/><rect width="164" height="22" x="413" y="130"/><a href="https://rspeele.gitbooks.io/rezoom-sql/doc/Language/CreateTableStmt.html#foreign-key-clause"><text x="495" y="145">foreign-key-clause</text><text x="495" y="145">foreign-key-clause</text></a></g><path d="M718 141a10 10 0 0 0 10 -10v-90a10 10 0 0 1 10 -10"/></g><path d="M 738 31 h 20 m -10 -10 v 20 m 10 -20 v 20"/></g></svg>