<svg xmlns="http://www.w3.org/2000/svg" width="348" height="82" class="railroad-diagram" viewBox="0 0 348 82"><g transform="translate(.5 .5)"><style type="text/css">svg.railroad-diagram path,svg.railroad-diagram rect{stroke-width:3;stroke:#000;fill:transparent}svg.railroad-diagram rect{fill:#def}svg.railroad-diagram text{font-family:&quot;Consolas&quot;,&quot;Monospace&quot;;font-size:14px;font-weight:700;text-anchor:middle}svg.railroad-diagram g.non-terminal text{font-style:italic}</style><path d="M 20 21 v 20 m 10 -20 v 20 m -10 -10 h 20.5"/><g><path d="M40 31h0"/><path d="M236 31h0"/><path d="M40 31h20"/><g><path d="M60 31h156"/></g><path d="M216 31h20"/><path d="M40 31a10 10 0 0 1 10 10v0a10 10 0 0 0 10 10"/><g><path d="M60 51h0"/><path d="M216 51h0"/><g class="non-terminal"><path d="M60 51h0"/><path d="M168 51h0"/><rect width="108" height="22" x="60" y="40"/><a href="https://rspeele.gitbooks.io/rezoom-sql/doc/Language/Name.html#object-name"><text x="114" y="55">object-name</text><text x="114" y="55">object-name</text></a></g><path d="M168 51h10"/><path d="M178 51h10"/><g class="terminal"><path d="M188 51h0"/><path d="M216 51h0"/><rect width="28" height="22" x="188" y="40" rx="10" ry="10"/><text x="202" y="55">.</text></g></g><path d="M216 51a10 10 0 0 0 10 -10v0a10 10 0 0 1 10 -10"/></g><path d="M236 31h10"/><g class="non-terminal"><path d="M246 31h0"/><path d="M298 31h0"/><rect width="52" height="22" x="246" y="20"/><a href="https://rspeele.gitbooks.io/rezoom-sql/doc/Language/Name.html#name"><text x="272" y="35">name</text><text x="272" y="35">name</text></a></g><path d="M298 31h10"/><path d="M 308 31 h 20 m -10 -10 v 20 m 10 -20 v 20"/></g></svg>