<svg xmlns="http://www.w3.org/2000/svg" width="700" height="330" class="railroad-diagram" viewBox="0 0 700 330"><g transform="translate(.5 .5)"><style type="text/css">svg.railroad-diagram path,svg.railroad-diagram rect{stroke-width:3;stroke:#000;fill:transparent}svg.railroad-diagram rect{fill:#def}svg.railroad-diagram text{font-family:&quot;Consolas&quot;,&quot;Monospace&quot;;font-size:14px;font-weight:700;text-anchor:middle}svg.railroad-diagram g.non-terminal text{font-style:italic}</style><path d="M 20 21 v 20 m 10 -20 v 20 m -10 -10 h 20.5"/><path d="M40 31h10"/><g><path d="M50 31h0"/><path d="M50 31h10"/><g><path d="M60 31h193"/><path d="M447 31h193"/><g class="terminal"><path d="M253 31h0"/><path d="M305 31h0"/><rect width="52" height="22" x="253" y="20" rx="10" ry="10"/><text x="279" y="35">WITH</text></g><path d="M305 31h10"/><g><path d="M315 31h0"/><path d="M447 31h0"/><path d="M315 31h20"/><g><path d="M335 31h92"/></g><path d="M427 31h20"/><path d="M315 31a10 10 0 0 1 10 10v0a10 10 0 0 0 10 10"/><g class="terminal"><path d="M335 51h0"/><path d="M427 51h0"/><rect width="92" height="22" x="335" y="40" rx="10" ry="10"/><text x="381" y="55">RECURSIVE</text></g><path d="M427 51a10 10 0 0 0 10 -10v0a10 10 0 0 1 10 -10"/></g></g><path d="M640 31a10 10 0 0 1 10 10v19a10 10 0 0 1 -10 10h-580a10 10 0 0 0 -10 10v0a10 10 0 0 0 10 10"/><g><path d="M60 90h10"/><path d="M630 90h10"/><path d="M70 90h10"/><g><path d="M80 90h0"/><path d="M620 90h0"/><g class="non-terminal"><path d="M80 90h0"/><path d="M132 90h0"/><rect width="52" height="22" x="80" y="79"/><a href="https://rspeele.gitbooks.io/rezoom-sql/doc/Language/Name.html#name"><text x="106" y="94">name</text><text x="106" y="94">name</text></a></g><path d="M132 90h10"/><g><path d="M142 90h0"/><path d="M350 90h0"/><path d="M142 90h20"/><g><path d="M162 90h168"/></g><path d="M330 90h20"/><path d="M142 90a10 10 0 0 1 10 10v0a10 10 0 0 0 10 10"/><g><path d="M162 110h0"/><path d="M330 110h0"/><g class="terminal"><path d="M162 110h0"/><path d="M190 110h0"/><rect width="28" height="22" x="162" y="99" rx="10" ry="10"/><text x="176" y="114">(</text></g><path d="M190 110h10"/><path d="M200 110h10"/><g><path d="M210 110h0"/><path d="M282 110h0"/><path d="M210 110h10"/><g class="non-terminal"><path d="M220 110h0"/><path d="M272 110h0"/><rect width="52" height="22" x="220" y="99"/><a href="https://rspeele.gitbooks.io/rezoom-sql/doc/Language/Name.html#name"><text x="246" y="114">name</text><text x="246" y="114">name</text></a></g><path d="M272 110h10"/><path d="M220 110a10 10 0 0 0 -10 10v10a10 10 0 0 0 10 10"/><g class="terminal"><path d="M220 140h12"/><path d="M260 140h12"/><rect width="28" height="22" x="232" y="129" rx="10" ry="10"/><text x="246" y="144">,</text></g><path d="M272 140a10 10 0 0 0 10 -10v-10a10 10 0 0 0 -10 -10"/></g><path d="M282 110h10"/><path d="M292 110h10"/><g class="terminal"><path d="M302 110h0"/><path d="M330 110h0"/><rect width="28" height="22" x="302" y="99" rx="10" ry="10"/><text x="316" y="114">)</text></g></g><path d="M330 110a10 10 0 0 0 10 -10v0a10 10 0 0 1 10 -10"/></g><path d="M350 90h10"/><g class="terminal"><path d="M360 90h0"/><path d="M396 90h0"/><rect width="36" height="22" x="360" y="79" rx="10" ry="10"/><text x="378" y="94">AS</text></g><path d="M396 90h10"/><path d="M406 90h10"/><g class="terminal"><path d="M416 90h0"/><path d="M444 90h0"/><rect width="28" height="22" x="416" y="79" rx="10" ry="10"/><text x="430" y="94">(</text></g><path d="M444 90h10"/><path d="M454 90h10"/><g class="non-terminal"><path d="M464 90h0"/><path d="M572 90h0"/><rect width="108" height="22" x="464" y="79"/><a href="https://rspeele.gitbooks.io/rezoom-sql/doc/Language/SelectStmt.html#select-stmt"><text x="518" y="94">select-stmt</text><text x="518" y="94">select-stmt</text></a></g><path d="M572 90h10"/><path d="M582 90h10"/><g class="terminal"><path d="M592 90h0"/><path d="M620 90h0"/><rect width="28" height="22" x="592" y="79" rx="10" ry="10"/><text x="606" y="94">)</text></g></g><path d="M620 90h10"/><path d="M80 90a10 10 0 0 0 -10 10v60a10 10 0 0 0 10 10"/><g class="terminal"><path d="M80 170h256"/><path d="M364 170h256"/><rect width="28" height="22" x="336" y="159" rx="10" ry="10"/><text x="350" y="174">,</text></g><path d="M620 170a10 10 0 0 0 10 -10v-60a10 10 0 0 0 -10 -10"/></g><path d="M640 90a10 10 0 0 1 10 10v79a10 10 0 0 1 -10 10h-580a10 10 0 0 0 -10 10v0a10 10 0 0 0 10 10"/><g><path d="M60 209h216"/><path d="M424 209h216"/><path d="M276 209h20"/><g class="non-terminal"><path d="M296 209h0"/><path d="M404 209h0"/><rect width="108" height="22" x="296" y="198"/><a href="https://rspeele.gitbooks.io/rezoom-sql/doc/Language/SelectStmt.html#select-stmt"><text x="350" y="213">select-stmt</text><text x="350" y="213">select-stmt</text></a></g><path d="M404 209h20"/><path d="M276 209a10 10 0 0 1 10 10v10a10 10 0 0 0 10 10"/><g class="non-terminal"><path d="M296 239h0"/><path d="M404 239h0"/><rect width="108" height="22" x="296" y="228"/><a href="https://rspeele.gitbooks.io/rezoom-sql/doc/Language/InsertStmt.html#insert-stmt"><text x="350" y="243">insert-stmt</text><text x="350" y="243">insert-stmt</text></a></g><path d="M404 239a10 10 0 0 0 10 -10v-10a10 10 0 0 1 10 -10"/><path d="M276 209a10 10 0 0 1 10 10v40a10 10 0 0 0 10 10"/><g class="non-terminal"><path d="M296 269h0"/><path d="M404 269h0"/><rect width="108" height="22" x="296" y="258"/><a href="https://rspeele.gitbooks.io/rezoom-sql/doc/Language/UpdateStmt.html#update-stmt"><text x="350" y="273">update-stmt</text><text x="350" y="273">update-stmt</text></a></g><path d="M404 269a10 10 0 0 0 10 -10v-40a10 10 0 0 1 10 -10"/><path d="M276 209a10 10 0 0 1 10 10v70a10 10 0 0 0 10 10"/><g class="non-terminal"><path d="M296 299h0"/><path d="M404 299h0"/><rect width="108" height="22" x="296" y="288"/><a href="https://rspeele.gitbooks.io/rezoom-sql/doc/Language/DeleteStmt.html#delete-stmt"><text x="350" y="303">delete-stmt</text><text x="350" y="303">delete-stmt</text></a></g><path d="M404 299a10 10 0 0 0 10 -10v-70a10 10 0 0 1 10 -10"/></g><path d="M640 209h10"/><path d="M650 209h0"/></g><path d="M650 209h10"/><path d="M 660 209 h 20 m -10 -10 v 20 m 10 -20 v 20"/></g></svg>