<svg xmlns="http://www.w3.org/2000/svg" width="582" height="251" class="railroad-diagram" viewBox="0 0 582 251"><g transform="translate(.5 .5)"><style type="text/css">svg.railroad-diagram path,svg.railroad-diagram rect{stroke-width:3;stroke:#000;fill:transparent}svg.railroad-diagram rect{fill:#def}svg.railroad-diagram text{font-family:&quot;Consolas&quot;,&quot;Monospace&quot;;font-size:14px;font-weight:700;text-anchor:middle}svg.railroad-diagram g.non-terminal text{font-style:italic}</style><path d="M 20 21 v 20 m 10 -20 v 20 m -10 -10 h 20.5"/><g><path d="M40 31h0"/><path d="M542 31h0"/><path d="M40 31h20"/><g class="non-terminal"><path d="M60 31h177"/><path d="M345 31h177"/><rect width="108" height="22" x="237" y="20"/><a href="https://rspeele.gitbooks.io/rezoom-sql/doc/Language/SelectStmt.html#select-core"><text x="291" y="35">select-core</text><text x="291" y="35">select-core</text></a></g><path d="M522 31h20"/><path d="M40 31a10 10 0 0 1 10 10v10a10 10 0 0 0 10 10"/><g><path d="M60 61h93"/><path d="M429 61h93"/><g class="terminal"><path d="M153 61h0"/><path d="M221 61h0"/><rect width="68" height="22" x="153" y="50" rx="10" ry="10"/><text x="187" y="65">VALUES</text></g><path d="M221 61h10"/><path d="M231 61h10"/><g><path d="M241 61h0"/><path d="M429 61h0"/><path d="M241 61h10"/><g><path d="M251 61h0"/><path d="M419 61h0"/><g class="terminal"><path d="M251 61h0"/><path d="M279 61h0"/><rect width="28" height="22" x="251" y="50" rx="10" ry="10"/><text x="265" y="65">(</text></g><path d="M279 61h10"/><path d="M289 61h10"/><g><path d="M299 61h0"/><path d="M371 61h0"/><path d="M299 61h10"/><g class="non-terminal"><path d="M309 61h0"/><path d="M361 61h0"/><rect width="52" height="22" x="309" y="50"/><a href="https://rspeele.gitbooks.io/rezoom-sql/doc/Language/Expr.html#expr"><text x="335" y="65">expr</text><text x="335" y="65">expr</text></a></g><path d="M361 61h10"/><path d="M309 61a10 10 0 0 0 -10 10v10a10 10 0 0 0 10 10"/><g class="terminal"><path d="M309 91h12"/><path d="M349 91h12"/><rect width="28" height="22" x="321" y="80" rx="10" ry="10"/><text x="335" y="95">,</text></g><path d="M361 91a10 10 0 0 0 10 -10v-10a10 10 0 0 0 -10 -10"/></g><path d="M371 61h10"/><path d="M381 61h10"/><g class="terminal"><path d="M391 61h0"/><path d="M419 61h0"/><rect width="28" height="22" x="391" y="50" rx="10" ry="10"/><text x="405" y="65">)</text></g></g><path d="M419 61h10"/><path d="M251 61a10 10 0 0 0 -10 10v40a10 10 0 0 0 10 10"/><g class="terminal"><path d="M251 121h70"/><path d="M349 121h70"/><rect width="28" height="22" x="321" y="110" rx="10" ry="10"/><text x="335" y="125">,</text></g><path d="M419 121a10 10 0 0 0 10 -10v-40a10 10 0 0 0 -10 -10"/></g></g><path d="M522 61a10 10 0 0 0 10 -10v-10a10 10 0 0 1 10 -10"/><path d="M40 31a10 10 0 0 1 10 10v139a10 10 0 0 0 10 10"/><g><path d="M60 190h0"/><path d="M522 190h0"/><g class="non-terminal"><path d="M60 190h0"/><path d="M184 190h0"/><rect width="124" height="22" x="60" y="179"/><a href="https://rspeele.gitbooks.io/rezoom-sql/doc/Language/SelectStmt.html#compound-expr"><text x="122" y="194">compound-expr</text><text x="122" y="194">compound-expr</text></a></g><path d="M184 190h10"/><g><path d="M194 190h0"/><path d="M388 190h0"/><path d="M194 190a10 10 0 0 0 10 -10v-19a10 10 0 0 1 10 -10"/><g class="terminal"><path d="M214 151h31"/><path d="M337 151h31"/><rect width="92" height="22" x="245" y="140" rx="10" ry="10"/><text x="291" y="155">INTERSECT</text></g><path d="M368 151a10 10 0 0 1 10 10v19a10 10 0 0 0 10 10"/><path d="M194 190h20"/><g><path d="M214 190h0"/><path d="M368 190h0"/><g class="terminal"><path d="M214 190h0"/><path d="M274 190h0"/><rect width="60" height="22" x="214" y="179" rx="10" ry="10"/><text x="244" y="194">UNION</text></g><path d="M274 190h10"/><g><path d="M284 190h0"/><path d="M368 190h0"/><path d="M284 190a10 10 0 0 0 10 -10v0a10 10 0 0 1 10 -10"/><g><path d="M304 170h44"/></g><path d="M348 170a10 10 0 0 1 10 10v0a10 10 0 0 0 10 10"/><path d="M284 190h20"/><g class="terminal"><path d="M304 190h0"/><path d="M348 190h0"/><rect width="44" height="22" x="304" y="179" rx="10" ry="10"/><text x="326" y="194">ALL</text></g><path d="M348 190h20"/></g></g><path d="M368 190h20"/><path d="M194 190a10 10 0 0 1 10 10v10a10 10 0 0 0 10 10"/><g class="terminal"><path d="M214 220h43"/><path d="M325 220h43"/><rect width="68" height="22" x="257" y="209" rx="10" ry="10"/><text x="291" y="224">EXCEPT</text></g><path d="M368 220a10 10 0 0 0 10 -10v-10a10 10 0 0 1 10 -10"/></g><path d="M388 190h10"/><g class="non-terminal"><path d="M398 190h0"/><path d="M522 190h0"/><rect width="124" height="22" x="398" y="179"/><a href="https://rspeele.gitbooks.io/rezoom-sql/doc/Language/SelectStmt.html#compound-expr"><text x="460" y="194">compound-expr</text><text x="460" y="194">compound-expr</text></a></g></g><path d="M522 190a10 10 0 0 0 10 -10v-139a10 10 0 0 1 10 -10"/></g><path d="M 542 31 h 20 m -10 -10 v 20 m 10 -20 v 20"/></g></svg>