<svg xmlns="http://www.w3.org/2000/svg" width="580" height="197" class="railroad-diagram" viewBox="0 0 580 197"><g transform="translate(.5 .5)"><style type="text/css">svg.railroad-diagram path,svg.railroad-diagram rect{stroke-width:3;stroke:#000;fill:transparent}svg.railroad-diagram rect{fill:#def}svg.railroad-diagram text{font-family:&quot;Consolas&quot;,&quot;Monospace&quot;;font-size:14px;font-weight:700;text-anchor:middle}svg.railroad-diagram g.non-terminal text{font-style:italic}</style><path d="M 20 21 v 20 m 10 -20 v 20 m -10 -10 h 20.5"/><path d="M40 31h10"/><g><path d="M50 31h0"/><path d="M50 31h10"/><g><path d="M60 31h10"/><path d="M510 31h10"/><g class="terminal"><path d="M70 31h0"/><path d="M138 31h0"/><rect width="68" height="22" x="70" y="20" rx="10" ry="10"/><text x="104" y="35">CREATE</text></g><path d="M138 31h10"/><g><path d="M148 31h0"/><path d="M320 31h0"/><path d="M148 31h20"/><g><path d="M168 31h132"/></g><path d="M300 31h20"/><path d="M148 31a10 10 0 0 1 10 10v0a10 10 0 0 0 10 10"/><g><path d="M168 51h0"/><path d="M300 51h0"/><path d="M168 51h20"/><g class="terminal"><path d="M188 51h20"/><path d="M260 51h20"/><rect width="52" height="22" x="208" y="40" rx="10" ry="10"/><text x="234" y="55">TEMP</text></g><path d="M280 51h20"/><path d="M168 51a10 10 0 0 1 10 10v10a10 10 0 0 0 10 10"/><g class="terminal"><path d="M188 81h0"/><path d="M280 81h0"/><rect width="92" height="22" x="188" y="70" rx="10" ry="10"/><text x="234" y="85">TEMPORARY</text></g><path d="M280 81a10 10 0 0 0 10 -10v-10a10 10 0 0 1 10 -10"/></g><path d="M300 51a10 10 0 0 0 10 -10v0a10 10 0 0 1 10 -10"/></g><path d="M320 31h10"/><g class="terminal"><path d="M330 31h0"/><path d="M382 31h0"/><rect width="52" height="22" x="330" y="20" rx="10" ry="10"/><text x="356" y="35">VIEW</text></g><path d="M382 31h10"/><path d="M392 31h10"/><g class="non-terminal"><path d="M402 31h0"/><path d="M510 31h0"/><rect width="108" height="22" x="402" y="20"/><a href="https://rspeele.gitbooks.io/rezoom-sql/doc/Language/Name.html#object-name"><text x="456" y="35">object-name</text><text x="456" y="35">object-name</text></a></g></g><path d="M520 31a10 10 0 0 1 10 10v49a10 10 0 0 1 -10 10h-460a10 10 0 0 0 -10 10v16a10 10 0 0 0 10 10"/><g><path d="M60 136h29"/><path d="M491 136h29"/><g><path d="M89 136h0"/><path d="M317 136h0"/><path d="M89 136a10 10 0 0 0 10 -10v-8a10 10 0 0 1 10 -10"/><g><path d="M109 108h188"/></g><path d="M297 108a10 10 0 0 1 10 10v8a10 10 0 0 0 10 10"/><path d="M89 136h20"/><g><path d="M109 136h0"/><path d="M297 136h0"/><g class="terminal"><path d="M109 136h0"/><path d="M137 136h0"/><rect width="28" height="22" x="109" y="125" rx="10" ry="10"/><text x="123" y="140">(</text></g><path d="M137 136h10"/><g><path d="M147 136h0"/><path d="M259 136h0"/><path d="M147 136a10 10 0 0 0 10 -10v0a10 10 0 0 1 10 -10"/><g><path d="M167 116h72"/></g><path d="M239 116a10 10 0 0 1 10 10v0a10 10 0 0 0 10 10"/><path d="M147 136h20"/><g><path d="M167 136h0"/><path d="M239 136h0"/><path d="M167 136h10"/><g class="non-terminal"><path d="M177 136h0"/><path d="M229 136h0"/><rect width="52" height="22" x="177" y="125"/><a href="https://rspeele.gitbooks.io/rezoom-sql/doc/Language/Name.html#name"><text x="203" y="140">name</text><text x="203" y="140">name</text></a></g><path d="M229 136h10"/><path d="M177 136a10 10 0 0 0 -10 10v10a10 10 0 0 0 10 10"/><g class="terminal"><path d="M177 166h12"/><path d="M217 166h12"/><rect width="28" height="22" x="189" y="155" rx="10" ry="10"/><text x="203" y="170">,</text></g><path d="M229 166a10 10 0 0 0 10 -10v-10a10 10 0 0 0 -10 -10"/></g><path d="M239 136h20"/></g><path d="M259 136h10"/><g class="terminal"><path d="M269 136h0"/><path d="M297 136h0"/><rect width="28" height="22" x="269" y="125" rx="10" ry="10"/><text x="283" y="140">)</text></g></g><path d="M297 136h20"/></g><path d="M317 136h10"/><g class="terminal"><path d="M327 136h0"/><path d="M363 136h0"/><rect width="36" height="22" x="327" y="125" rx="10" ry="10"/><text x="345" y="140">AS</text></g><path d="M363 136h10"/><path d="M373 136h10"/><g class="non-terminal"><path d="M383 136h0"/><path d="M491 136h0"/><rect width="108" height="22" x="383" y="125"/><a href="https://rspeele.gitbooks.io/rezoom-sql/doc/Language/SelectStmt.html#select-stmt"><text x="437" y="140">select-stmt</text><text x="437" y="140">select-stmt</text></a></g></g><path d="M520 136h10"/><path d="M530 136h0"/></g><path d="M530 136h10"/><path d="M 540 136 h 20 m -10 -10 v 20 m 10 -20 v 20"/></g></svg>