<svg xmlns="http://www.w3.org/2000/svg" width="588" height="250" class="railroad-diagram" viewBox="0 0 588 250"><g transform="translate(.5 .5)"><style type="text/css">svg.railroad-diagram path,svg.railroad-diagram rect{stroke-width:3;stroke:#000;fill:transparent}svg.railroad-diagram rect{fill:#def}svg.railroad-diagram text{font-family:&quot;Consolas&quot;,&quot;Monospace&quot;;font-size:14px;font-weight:700;text-anchor:middle}svg.railroad-diagram g.non-terminal text{font-style:italic}</style><path d="M 20 21 v 20 m 10 -20 v 20 m -10 -10 h 20.5"/><path d="M40 31h10"/><g><path d="M50 31h0"/><path d="M538 120h0"/><g><path d="M50 31h0"/><path d="M50 31h10"/><g><path d="M60 31h10"/><path d="M518 31h10"/><g class="terminal"><path d="M70 31h0"/><path d="M138 31h0"/><rect width="68" height="22" x="70" y="20" rx="10" ry="10"/><text x="104" y="35">CREATE</text></g><path d="M138 31h10"/><g><path d="M148 31h0"/><path d="M320 31h0"/><path d="M148 31h20"/><g><path d="M168 31h132"/></g><path d="M300 31h20"/><path d="M148 31a10 10 0 0 1 10 10v0a10 10 0 0 0 10 10"/><g><path d="M168 51h0"/><path d="M300 51h0"/><path d="M168 51h20"/><g class="terminal"><path d="M188 51h20"/><path d="M260 51h20"/><rect width="52" height="22" x="208" y="40" rx="10" ry="10"/><text x="234" y="55">TEMP</text></g><path d="M280 51h20"/><path d="M168 51a10 10 0 0 1 10 10v10a10 10 0 0 0 10 10"/><g class="terminal"><path d="M188 81h0"/><path d="M280 81h0"/><rect width="92" height="22" x="188" y="70" rx="10" ry="10"/><text x="234" y="85">TEMPORARY</text></g><path d="M280 81a10 10 0 0 0 10 -10v-10a10 10 0 0 1 10 -10"/></g><path d="M300 51a10 10 0 0 0 10 -10v0a10 10 0 0 1 10 -10"/></g><path d="M320 31h10"/><g class="terminal"><path d="M330 31h0"/><path d="M390 31h0"/><rect width="60" height="22" x="330" y="20" rx="10" ry="10"/><text x="360" y="35">TABLE</text></g><path d="M390 31h10"/><path d="M400 31h10"/><g class="non-terminal"><path d="M410 31h0"/><path d="M518 31h0"/><rect width="108" height="22" x="410" y="20"/><a href="https://rspeele.gitbooks.io/rezoom-sql/doc/Language/Name.html#object-name"><text x="464" y="35">object-name</text><text x="464" y="35">object-name</text></a></g></g><path d="M528 31a10 10 0 0 1 10 10v49a10 10 0 0 1 -10 10h-468a10 10 0 0 0 -10 10v0a10 10 0 0 0 10 10"/><g><path d="M60 120h52"/><path d="M476 120h52"/><path d="M112 120h20"/><g><path d="M132 120h80"/><path d="M376 120h80"/><g class="terminal"><path d="M212 120h0"/><path d="M248 120h0"/><rect width="36" height="22" x="212" y="109" rx="10" ry="10"/><text x="230" y="124">AS</text></g><path d="M248 120h10"/><path d="M258 120h10"/><g class="non-terminal"><path d="M268 120h0"/><path d="M376 120h0"/><rect width="108" height="22" x="268" y="109"/><a href="https://rspeele.gitbooks.io/rezoom-sql/doc/Language/SelectStmt.html#select-stmt"><text x="322" y="124">select-stmt</text><text x="322" y="124">select-stmt</text></a></g></g><path d="M456 120h20"/><path d="M112 120a10 10 0 0 1 10 10v19a10 10 0 0 0 10 10"/><g><path d="M132 159h0"/><path d="M456 159h0"/><g class="terminal"><path d="M132 159h0"/><path d="M160 159h0"/><rect width="28" height="22" x="132" y="148" rx="10" ry="10"/><text x="146" y="163">(</text></g><path d="M160 159h10"/><g><path d="M170 159h0"/><path d="M418 159h0"/><path d="M170 159a10 10 0 0 0 10 -10v0a10 10 0 0 1 10 -10"/><g><path d="M190 139h208"/></g><path d="M398 139a10 10 0 0 1 10 10v0a10 10 0 0 0 10 10"/><path d="M170 159h20"/><g><path d="M190 159h0"/><path d="M398 159h0"/><path d="M190 159h10"/><g><path d="M200 159h0"/><path d="M388 159h0"/><path d="M200 159h20"/><g class="non-terminal"><path d="M220 159h24"/><path d="M344 159h24"/><rect width="100" height="22" x="244" y="148"/><a href="https://rspeele.gitbooks.io/rezoom-sql/doc/Language/CreateTableStmt.html#column-def"><text x="294" y="163">column-def</text><text x="294" y="163">column-def</text></a></g><path d="M368 159h20"/><path d="M200 159a10 10 0 0 1 10 10v10a10 10 0 0 0 10 10"/><g class="non-terminal"><path d="M220 189h0"/><path d="M368 189h0"/><rect width="148" height="22" x="220" y="178"/><a href="https://rspeele.gitbooks.io/rezoom-sql/doc/Language/CreateTableStmt.html#table-constraint"><text x="294" y="193">table-constraint</text><text x="294" y="193">table-constraint</text></a></g><path d="M368 189a10 10 0 0 0 10 -10v-10a10 10 0 0 1 10 -10"/></g><path d="M388 159h10"/><path d="M200 159a10 10 0 0 0 -10 10v40a10 10 0 0 0 10 10"/><g class="terminal"><path d="M200 219h80"/><path d="M308 219h80"/><rect width="28" height="22" x="280" y="208" rx="10" ry="10"/><text x="294" y="223">,</text></g><path d="M388 219a10 10 0 0 0 10 -10v-40a10 10 0 0 0 -10 -10"/></g><path d="M398 159h20"/></g><path d="M418 159h10"/><g class="terminal"><path d="M428 159h0"/><path d="M456 159h0"/><rect width="28" height="22" x="428" y="148" rx="10" ry="10"/><text x="442" y="163">)</text></g></g><path d="M456 159a10 10 0 0 0 10 -10v-19a10 10 0 0 1 10 -10"/></g><path d="M528 120h10"/><path d="M538 120h0"/></g></g><path d="M538 120h10"/><path d="M 548 120 h 20 m -10 -10 v 20 m 10 -20 v 20"/></g></svg>