<svg xmlns="http://www.w3.org/2000/svg" width="408" height="122" class="railroad-diagram" viewBox="0 0 408 122"><g transform="translate(.5 .5)"><style type="text/css">svg.railroad-diagram path,svg.railroad-diagram rect{stroke-width:3;stroke:#000;fill:transparent}svg.railroad-diagram rect{fill:#def}svg.railroad-diagram text{font-family:&quot;Consolas&quot;,&quot;Monospace&quot;;font-size:14px;font-weight:700;text-anchor:middle}svg.railroad-diagram g.non-terminal text{font-style:italic}</style><path d="M 20 21 v 20 m 10 -20 v 20 m -10 -10 h 20.5"/><path d="M40 31h10"/><g><path d="M50 31h0"/><path d="M50 31h10"/><g><path d="M60 31h10"/><path d="M338 31h10"/><g class="terminal"><path d="M70 31h0"/><path d="M138 31h0"/><rect width="68" height="22" x="70" y="20" rx="10" ry="10"/><text x="104" y="35">DELETE</text></g><path d="M138 31h10"/><path d="M148 31h10"/><g class="terminal"><path d="M158 31h0"/><path d="M210 31h0"/><rect width="52" height="22" x="158" y="20" rx="10" ry="10"/><text x="184" y="35">FROM</text></g><path d="M210 31h10"/><path d="M220 31h10"/><g class="non-terminal"><path d="M230 31h0"/><path d="M338 31h0"/><rect width="108" height="22" x="230" y="20"/><a href="https://rspeele.gitbooks.io/rezoom-sql/doc/Language/Name.html#object-name"><text x="284" y="35">object-name</text><text x="284" y="35">object-name</text></a></g></g><path d="M348 31a10 10 0 0 1 10 10v0a10 10 0 0 1 -10 10h-288a10 10 0 0 0 -10 10v0a10 10 0 0 0 10 10"/><g><path d="M60 71h58"/><path d="M290 71h58"/><path d="M118 71h20"/><g><path d="M138 71h132"/></g><path d="M270 71h20"/><path d="M118 71a10 10 0 0 1 10 10v0a10 10 0 0 0 10 10"/><g><path d="M138 91h0"/><path d="M270 91h0"/><g class="terminal"><path d="M138 91h0"/><path d="M198 91h0"/><rect width="60" height="22" x="138" y="80" rx="10" ry="10"/><text x="168" y="95">WHERE</text></g><path d="M198 91h10"/><path d="M208 91h10"/><g class="non-terminal"><path d="M218 91h0"/><path d="M270 91h0"/><rect width="52" height="22" x="218" y="80"/><a href="https://rspeele.gitbooks.io/rezoom-sql/doc/Language/Expr.html#expr"><text x="244" y="95">expr</text><text x="244" y="95">expr</text></a></g></g><path d="M270 91a10 10 0 0 0 10 -10v0a10 10 0 0 1 10 -10"/></g><path d="M348 71h10"/><path d="M358 71h0"/></g><path d="M358 71h10"/><path d="M 368 71 h 20 m -10 -10 v 20 m 10 -20 v 20"/></g></svg>