<svg xmlns="http://www.w3.org/2000/svg" width="380" height="122" class="railroad-diagram" viewBox="0 0 380 122"><g transform="translate(.5 .5)"><style type="text/css">svg.railroad-diagram path,svg.railroad-diagram rect{stroke-width:3;stroke:#000;fill:transparent}svg.railroad-diagram rect{fill:#def}svg.railroad-diagram text{font-family:&quot;Consolas&quot;,&quot;Monospace&quot;;font-size:14px;font-weight:700;text-anchor:middle}svg.railroad-diagram g.non-terminal text{font-style:italic}</style><path d="M 20 21 v 20 m 10 -20 v 20 m -10 -10 h 20.5"/><path d="M40 31h10"/><g><path d="M50 31h0"/><path d="M330 31h0"/><g class="terminal"><path d="M50 31h0"/><path d="M102 31h0"/><rect width="52" height="22" x="50" y="20" rx="10" ry="10"/><text x="76" y="35">DROP</text></g><path d="M102 31h10"/><g><path d="M112 31h0"/><path d="M212 31h0"/><path d="M112 31h20"/><g class="terminal"><path d="M132 31h0"/><path d="M192 31h0"/><rect width="60" height="22" x="132" y="20" rx="10" ry="10"/><text x="162" y="35">TABLE</text></g><path d="M192 31h20"/><path d="M112 31a10 10 0 0 1 10 10v10a10 10 0 0 0 10 10"/><g class="terminal"><path d="M132 61h4"/><path d="M188 61h4"/><rect width="52" height="22" x="136" y="50" rx="10" ry="10"/><text x="162" y="65">VIEW</text></g><path d="M192 61a10 10 0 0 0 10 -10v-10a10 10 0 0 1 10 -10"/><path d="M112 31a10 10 0 0 1 10 10v40a10 10 0 0 0 10 10"/><g class="terminal"><path d="M132 91h0"/><path d="M192 91h0"/><rect width="60" height="22" x="132" y="80" rx="10" ry="10"/><text x="162" y="95">INDEX</text></g><path d="M192 91a10 10 0 0 0 10 -10v-40a10 10 0 0 1 10 -10"/></g><path d="M212 31h10"/><g class="non-terminal"><path d="M222 31h0"/><path d="M330 31h0"/><rect width="108" height="22" x="222" y="20"/><a href="https://rspeele.gitbooks.io/rezoom-sql/doc/Language/Name.html#object-name"><text x="276" y="35">object-name</text><text x="276" y="35">object-name</text></a></g></g><path d="M330 31h10"/><path d="M 340 31 h 20 m -10 -10 v 20 m 10 -20 v 20"/></g></svg>