<svg xmlns="http://www.w3.org/2000/svg" width="890" height="211" class="railroad-diagram" viewBox="0 0 890 211"><g transform="translate(.5 .5)"><style type="text/css">svg.railroad-diagram path,svg.railroad-diagram rect{stroke-width:3;stroke:#000;fill:transparent}svg.railroad-diagram rect{fill:#def}svg.railroad-diagram text{font-family:&quot;Consolas&quot;,&quot;Monospace&quot;;font-size:14px;font-weight:700;text-anchor:middle}svg.railroad-diagram g.non-terminal text{font-style:italic}</style><path d="M 20 30 v 20 m 10 -20 v 20 m -10 -10 h 20.5"/><path d="M40 40h10"/><g class="terminal"><path d="M50 40h0"/><path d="M150 40h0"/><rect width="100" height="22" x="50" y="29" rx="10" ry="10"/><text x="100" y="44">REFERENCES</text></g><path d="M150 40h10"/><path d="M160 40h10"/><g class="non-terminal"><path d="M170 40h0"/><path d="M278 40h0"/><rect width="108" height="22" x="170" y="29"/><a href="https://rspeele.gitbooks.io/rezoom-sql/doc/Language/Name.html#object-name"><text x="224" y="44">object-name</text><text x="224" y="44">object-name</text></a></g><path d="M278 40h10"/><path d="M288 40h10"/><g class="terminal"><path d="M298 40h0"/><path d="M326 40h0"/><rect width="28" height="22" x="298" y="29" rx="10" ry="10"/><text x="312" y="44">(</text></g><path d="M326 40h10"/><g><path d="M336 40h0"/><path d="M448 40h0"/><path d="M336 40a10 10 0 0 0 10 -10v0a10 10 0 0 1 10 -10"/><g><path d="M356 20h72"/></g><path d="M428 20a10 10 0 0 1 10 10v0a10 10 0 0 0 10 10"/><path d="M336 40h20"/><g><path d="M356 40h0"/><path d="M428 40h0"/><path d="M356 40h10"/><g class="non-terminal"><path d="M366 40h0"/><path d="M418 40h0"/><rect width="52" height="22" x="366" y="29"/><a href="https://rspeele.gitbooks.io/rezoom-sql/doc/Language/Name.html#name"><text x="392" y="44">name</text><text x="392" y="44">name</text></a></g><path d="M418 40h10"/><path d="M366 40a10 10 0 0 0 -10 10v10a10 10 0 0 0 10 10"/><g class="terminal"><path d="M366 70h12"/><path d="M406 70h12"/><rect width="28" height="22" x="378" y="59" rx="10" ry="10"/><text x="392" y="74">,</text></g><path d="M418 70a10 10 0 0 0 10 -10v-10a10 10 0 0 0 -10 -10"/></g><path d="M428 40h20"/></g><path d="M448 40h10"/><g class="terminal"><path d="M458 40h0"/><path d="M486 40h0"/><rect width="28" height="22" x="458" y="29" rx="10" ry="10"/><text x="472" y="44">)</text></g><path d="M486 40h10"/><g><path d="M496 40h0"/><path d="M850 40h0"/><path d="M496 40h20"/><g><path d="M516 40h314"/></g><path d="M830 40h20"/><path d="M496 40a10 10 0 0 1 10 10v0a10 10 0 0 0 10 10"/><g><path d="M516 60h0"/><path d="M830 60h0"/><g class="terminal"><path d="M516 60h0"/><path d="M552 60h0"/><rect width="36" height="22" x="516" y="49" rx="10" ry="10"/><text x="534" y="64">ON</text></g><path d="M552 60h10"/><path d="M562 60h10"/><g class="terminal"><path d="M572 60h0"/><path d="M640 60h0"/><rect width="68" height="22" x="572" y="49" rx="10" ry="10"/><text x="606" y="64">DELETE</text></g><path d="M640 60h10"/><g><path d="M650 60h0"/><path d="M830 60h0"/><path d="M650 60h20"/><g><path d="M670 60h12"/><path d="M798 60h12"/><g class="terminal"><path d="M682 60h0"/><path d="M726 60h0"/><rect width="44" height="22" x="682" y="49" rx="10" ry="10"/><text x="704" y="64">SET</text></g><path d="M726 60h10"/><path d="M736 60h10"/><g class="terminal"><path d="M746 60h0"/><path d="M798 60h0"/><rect width="52" height="22" x="746" y="49" rx="10" ry="10"/><text x="772" y="64">NULL</text></g></g><path d="M810 60h20"/><path d="M650 60a10 10 0 0 1 10 10v10a10 10 0 0 0 10 10"/><g><path d="M670 90h0"/><path d="M810 90h0"/><g class="terminal"><path d="M670 90h0"/><path d="M714 90h0"/><rect width="44" height="22" x="670" y="79" rx="10" ry="10"/><text x="692" y="94">SET</text></g><path d="M714 90h10"/><path d="M724 90h10"/><g class="terminal"><path d="M734 90h0"/><path d="M810 90h0"/><rect width="76" height="22" x="734" y="79" rx="10" ry="10"/><text x="772" y="94">DEFAULT</text></g></g><path d="M810 90a10 10 0 0 0 10 -10v-10a10 10 0 0 1 10 -10"/><path d="M650 60a10 10 0 0 1 10 10v40a10 10 0 0 0 10 10"/><g class="terminal"><path d="M670 120h32"/><path d="M778 120h32"/><rect width="76" height="22" x="702" y="109" rx="10" ry="10"/><text x="740" y="124">CASCADE</text></g><path d="M810 120a10 10 0 0 0 10 -10v-40a10 10 0 0 1 10 -10"/><path d="M650 60a10 10 0 0 1 10 10v70a10 10 0 0 0 10 10"/><g class="terminal"><path d="M670 150h28"/><path d="M782 150h28"/><rect width="84" height="22" x="698" y="139" rx="10" ry="10"/><text x="740" y="154">RESTRICT</text></g><path d="M810 150a10 10 0 0 0 10 -10v-70a10 10 0 0 1 10 -10"/><path d="M650 60a10 10 0 0 1 10 10v100a10 10 0 0 0 10 10"/><g><path d="M670 180h8"/><path d="M802 180h8"/><g class="terminal"><path d="M678 180h0"/><path d="M714 180h0"/><rect width="36" height="22" x="678" y="169" rx="10" ry="10"/><text x="696" y="184">NO</text></g><path d="M714 180h10"/><path d="M724 180h10"/><g class="terminal"><path d="M734 180h0"/><path d="M802 180h0"/><rect width="68" height="22" x="734" y="169" rx="10" ry="10"/><text x="768" y="184">ACTION</text></g></g><path d="M810 180a10 10 0 0 0 10 -10v-100a10 10 0 0 1 10 -10"/></g></g><path d="M830 60a10 10 0 0 0 10 -10v0a10 10 0 0 1 10 -10"/></g><path d="M 850 40 h 20 m -10 -10 v 20 m 10 -20 v 20"/></g></svg>