<svg xmlns="http://www.w3.org/2000/svg" width="704" height="152" class="railroad-diagram" viewBox="0 0 704 152"><g transform="translate(.5 .5)"><style type="text/css">svg.railroad-diagram path,svg.railroad-diagram rect{stroke-width:3;stroke:#000;fill:transparent}svg.railroad-diagram rect{fill:#def}svg.railroad-diagram text{font-family:&quot;Consolas&quot;,&quot;Monospace&quot;;font-size:14px;font-weight:700;text-anchor:middle}svg.railroad-diagram g.non-terminal text{font-style:italic}</style><path d="M 20 21 v 20 m 10 -20 v 20 m -10 -10 h 20.5"/><path d="M40 31h10"/><g class="terminal"><path d="M50 31h0"/><path d="M118 31h0"/><rect width="68" height="22" x="50" y="20" rx="10" ry="10"/><text x="84" y="35">INSERT</text></g><path d="M118 31h10"/><path d="M128 31h10"/><g class="terminal"><path d="M138 31h0"/><path d="M190 31h0"/><rect width="52" height="22" x="138" y="20" rx="10" ry="10"/><text x="164" y="35">INTO</text></g><path d="M190 31h10"/><path d="M200 31h10"/><g class="non-terminal"><path d="M210 31h0"/><path d="M318 31h0"/><rect width="108" height="22" x="210" y="20"/><a href="https://rspeele.gitbooks.io/rezoom-sql/doc/Language/Name.html#object-name"><text x="264" y="35">object-name</text><text x="264" y="35">object-name</text></a></g><path d="M318 31h10"/><g><path d="M328 31h0"/><path d="M664 31h0"/><path d="M328 31h20"/><g><path d="M348 31h0"/><path d="M644 31h0"/><g class="terminal"><path d="M348 31h0"/><path d="M376 31h0"/><rect width="28" height="22" x="348" y="20" rx="10" ry="10"/><text x="362" y="35">(</text></g><path d="M376 31h10"/><path d="M386 31h10"/><g><path d="M396 31h0"/><path d="M468 31h0"/><path d="M396 31h10"/><g class="non-terminal"><path d="M406 31h0"/><path d="M458 31h0"/><rect width="52" height="22" x="406" y="20"/><a href="https://rspeele.gitbooks.io/rezoom-sql/doc/Language/Name.html#name"><text x="432" y="35">name</text><text x="432" y="35">name</text></a></g><path d="M458 31h10"/><path d="M406 31a10 10 0 0 0 -10 10v10a10 10 0 0 0 10 10"/><g class="terminal"><path d="M406 61h12"/><path d="M446 61h12"/><rect width="28" height="22" x="418" y="50" rx="10" ry="10"/><text x="432" y="65">,</text></g><path d="M458 61a10 10 0 0 0 10 -10v-10a10 10 0 0 0 -10 -10"/></g><path d="M468 31h10"/><path d="M478 31h10"/><g class="terminal"><path d="M488 31h0"/><path d="M516 31h0"/><rect width="28" height="22" x="488" y="20" rx="10" ry="10"/><text x="502" y="35">)</text></g><path d="M516 31h10"/><path d="M526 31h10"/><g class="non-terminal"><path d="M536 31h0"/><path d="M644 31h0"/><rect width="108" height="22" x="536" y="20"/><a href="https://rspeele.gitbooks.io/rezoom-sql/doc/Language/SelectStmt.html#select-stmt"><text x="590" y="35">select-stmt</text><text x="590" y="35">select-stmt</text></a></g></g><path d="M644 31h20"/><path d="M328 31a10 10 0 0 1 10 10v40a10 10 0 0 0 10 10"/><g><path d="M348 91h20"/><path d="M624 91h20"/><g class="terminal"><path d="M368 91h0"/><path d="M412 91h0"/><rect width="44" height="22" x="368" y="80" rx="10" ry="10"/><text x="390" y="95">ROW</text></g><path d="M412 91h10"/><path d="M422 91h10"/><g><path d="M432 91h0"/><path d="M624 91h0"/><path d="M432 91h10"/><g><path d="M442 91h0"/><path d="M614 91h0"/><g class="non-terminal"><path d="M442 91h0"/><path d="M494 91h0"/><rect width="52" height="22" x="442" y="80"/><a href="https://rspeele.gitbooks.io/rezoom-sql/doc/Language/Name.html#name"><text x="468" y="95">name</text><text x="468" y="95">name</text></a></g><path d="M494 91h10"/><path d="M504 91h10"/><g class="terminal"><path d="M514 91h0"/><path d="M542 91h0"/><rect width="28" height="22" x="514" y="80" rx="10" ry="10"/><text x="528" y="95">=</text></g><path d="M542 91h10"/><path d="M552 91h10"/><g class="non-terminal"><path d="M562 91h0"/><path d="M614 91h0"/><rect width="52" height="22" x="562" y="80"/><a href="https://rspeele.gitbooks.io/rezoom-sql/doc/Language/Expr.html#expr"><text x="588" y="95">expr</text><text x="588" y="95">expr</text></a></g></g><path d="M614 91h10"/><path d="M442 91a10 10 0 0 0 -10 10v10a10 10 0 0 0 10 10"/><g class="terminal"><path d="M442 121h72"/><path d="M542 121h72"/><rect width="28" height="22" x="514" y="110" rx="10" ry="10"/><text x="528" y="125">,</text></g><path d="M614 121a10 10 0 0 0 10 -10v-10a10 10 0 0 0 -10 -10"/></g></g><path d="M644 91a10 10 0 0 0 10 -10v-40a10 10 0 0 1 10 -10"/></g><path d="M 664 31 h 20 m -10 -10 v 20 m 10 -20 v 20"/></g></svg>