<svg xmlns="http://www.w3.org/2000/svg" width="876" height="452" class="railroad-diagram" viewBox="0 0 876 452"><g transform="translate(.5 .5)"><style type="text/css">svg.railroad-diagram path,svg.railroad-diagram rect{stroke-width:3;stroke:#000;fill:transparent}svg.railroad-diagram rect{fill:#def}svg.railroad-diagram text{font-family:&quot;Consolas&quot;,&quot;Monospace&quot;;font-size:14px;font-weight:700;text-anchor:middle}svg.railroad-diagram g.non-terminal text{font-style:italic}</style><path d="M 20 21 v 20 m 10 -20 v 20 m -10 -10 h 20.5"/><g><path d="M40 31h0"/><path d="M836 31h0"/><path d="M40 31h20"/><g class="terminal"><path d="M60 31h352"/><path d="M464 31h352"/><rect width="52" height="22" x="412" y="20" rx="10" ry="10"/><text x="438" y="35">NULL</text></g><path d="M816 31h20"/><path d="M40 31a10 10 0 0 1 10 10v10a10 10 0 0 0 10 10"/><g><path d="M60 61h328"/><path d="M488 61h328"/><path d="M388 61h20"/><g class="terminal"><path d="M408 61h4"/><path d="M464 61h4"/><rect width="52" height="22" x="412" y="50" rx="10" ry="10"/><text x="438" y="65">TRUE</text></g><path d="M468 61h20"/><path d="M388 61a10 10 0 0 1 10 10v10a10 10 0 0 0 10 10"/><g class="terminal"><path d="M408 91h0"/><path d="M468 91h0"/><rect width="60" height="22" x="408" y="80" rx="10" ry="10"/><text x="438" y="95">FALSE</text></g><path d="M468 91a10 10 0 0 0 10 -10v-10a10 10 0 0 1 10 -10"/></g><path d="M816 61a10 10 0 0 0 10 -10v-10a10 10 0 0 1 10 -10"/><path d="M40 31a10 10 0 0 1 10 10v79a10 10 0 0 0 10 10"/><g><path d="M60 130h0"/><path d="M816 130h0"/><path d="M60 130h20"/><g><path d="M80 130h0"/><path d="M796 130h0"/><g><path d="M80 130h0"/><path d="M264 130h0"/><path d="M80 130a10 10 0 0 0 10 -10v0a10 10 0 0 1 10 -10"/><g><path d="M100 110h144"/></g><path d="M244 110a10 10 0 0 1 10 10v0a10 10 0 0 0 10 10"/><path d="M80 130h20"/><g><path d="M100 130h0"/><path d="M244 130h0"/><path d="M100 130h10"/><g class="non-terminal"><path d="M110 130h0"/><path d="M234 130h0"/><rect width="124" height="22" x="110" y="119"/><text x="172" y="134">decimal-digit</text></g><path d="M234 130h10"/><path d="M110 130a10 10 0 0 0 -10 10v0a10 10 0 0 0 10 10"/><g><path d="M110 150h124"/></g><path d="M234 150a10 10 0 0 0 10 -10v0a10 10 0 0 0 -10 -10"/></g><path d="M244 130h20"/></g><g><path d="M264 130h0"/><path d="M496 130h0"/><path d="M264 130h20"/><g><path d="M284 130h192"/></g><path d="M476 130h20"/><path d="M264 130a10 10 0 0 1 10 10v0a10 10 0 0 0 10 10"/><g><path d="M284 150h0"/><path d="M476 150h0"/><g class="terminal"><path d="M284 150h0"/><path d="M312 150h0"/><rect width="28" height="22" x="284" y="139" rx="10" ry="10"/><text x="298" y="154">.</text></g><path d="M312 150h10"/><path d="M322 150h10"/><g><path d="M332 150h0"/><path d="M476 150h0"/><path d="M332 150h10"/><g class="non-terminal"><path d="M342 150h0"/><path d="M466 150h0"/><rect width="124" height="22" x="342" y="139"/><text x="404" y="154">decimal-digit</text></g><path d="M466 150h10"/><path d="M342 150a10 10 0 0 0 -10 10v0a10 10 0 0 0 10 10"/><g><path d="M342 170h124"/></g><path d="M466 170a10 10 0 0 0 10 -10v0a10 10 0 0 0 -10 -10"/></g></g><path d="M476 150a10 10 0 0 0 10 -10v0a10 10 0 0 1 10 -10"/></g><g><path d="M496 130h0"/><path d="M796 130h0"/><path d="M496 130a10 10 0 0 0 10 -10v0a10 10 0 0 1 10 -10"/><g><path d="M516 110h260"/></g><path d="M776 110a10 10 0 0 1 10 10v0a10 10 0 0 0 10 10"/><path d="M496 130h20"/><g><path d="M516 130h0"/><path d="M776 130h0"/><g class="terminal"><path d="M516 130h0"/><path d="M544 130h0"/><rect width="28" height="22" x="516" y="119" rx="10" ry="10"/><text x="530" y="134">e</text></g><path d="M544 130h10"/><g><path d="M554 130h0"/><path d="M622 130h0"/><path d="M554 130h20"/><g><path d="M574 130h28"/></g><path d="M602 130h20"/><path d="M554 130a10 10 0 0 1 10 10v0a10 10 0 0 0 10 10"/><g class="terminal"><path d="M574 150h0"/><path d="M602 150h0"/><rect width="28" height="22" x="574" y="139" rx="10" ry="10"/><text x="588" y="154">+</text></g><path d="M602 150a10 10 0 0 0 10 -10v0a10 10 0 0 1 10 -10"/><path d="M554 130a10 10 0 0 1 10 10v30a10 10 0 0 0 10 10"/><g class="terminal"><path d="M574 180h0"/><path d="M602 180h0"/><rect width="28" height="22" x="574" y="169" rx="10" ry="10"/><text x="588" y="184">-</text></g><path d="M602 180a10 10 0 0 0 10 -10v-30a10 10 0 0 1 10 -10"/></g><path d="M622 130h10"/><g><path d="M632 130h0"/><path d="M776 130h0"/><path d="M632 130h10"/><g class="non-terminal"><path d="M642 130h0"/><path d="M766 130h0"/><rect width="124" height="22" x="642" y="119"/><text x="704" y="134">decimal-digit</text></g><path d="M766 130h10"/><path d="M642 130a10 10 0 0 0 -10 10v0a10 10 0 0 0 10 10"/><g><path d="M642 150h124"/></g><path d="M766 150a10 10 0 0 0 10 -10v0a10 10 0 0 0 -10 -10"/></g></g><path d="M776 130h20"/></g></g><path d="M796 130h20"/><path d="M60 130a10 10 0 0 1 10 10v60a10 10 0 0 0 10 10"/><g><path d="M80 210h274"/><path d="M522 210h274"/><g class="terminal"><path d="M354 210h0"/><path d="M390 210h0"/><rect width="36" height="22" x="354" y="199" rx="10" ry="10"/><text x="372" y="214">0x</text></g><path d="M390 210h10"/><path d="M400 210h10"/><g><path d="M410 210h0"/><path d="M522 210h0"/><path d="M410 210h10"/><g class="non-terminal"><path d="M420 210h0"/><path d="M512 210h0"/><rect width="92" height="22" x="420" y="199"/><text x="466" y="214">hex-digit</text></g><path d="M512 210h10"/><path d="M420 210a10 10 0 0 0 -10 10v0a10 10 0 0 0 10 10"/><g><path d="M420 230h92"/></g><path d="M512 230a10 10 0 0 0 10 -10v0a10 10 0 0 0 -10 -10"/></g></g><path d="M796 210a10 10 0 0 0 10 -10v-60a10 10 0 0 1 10 -10"/></g><path d="M816 130a10 10 0 0 0 10 -10v-79a10 10 0 0 1 10 -10"/><path d="M40 31a10 10 0 0 1 10 10v207a10 10 0 0 0 10 10"/><g><path d="M60 258h208"/><path d="M608 258h208"/><g class="terminal"><path d="M268 258h0"/><path d="M296 258h0"/><rect width="28" height="22" x="268" y="247" rx="10" ry="10"/><text x="282" y="262">&apos;</text></g><path d="M296 258h10"/><g><path d="M306 258h0"/><path d="M570 258h0"/><path d="M306 258a10 10 0 0 0 10 -10v0a10 10 0 0 1 10 -10"/><g><path d="M326 238h224"/></g><path d="M550 238a10 10 0 0 1 10 10v0a10 10 0 0 0 10 10"/><path d="M306 258h20"/><g><path d="M326 258h0"/><path d="M550 258h0"/><path d="M326 258h10"/><g><path d="M336 258h0"/><path d="M540 258h0"/><path d="M336 258h20"/><g class="non-terminal"><path d="M356 258h0"/><path d="M520 258h0"/><rect width="164" height="22" x="356" y="247"/><text x="438" y="262">any-char-but-quote</text></g><path d="M520 258h20"/><path d="M336 258a10 10 0 0 1 10 10v10a10 10 0 0 0 10 10"/><g class="terminal"><path d="M356 288h64"/><path d="M456 288h64"/><rect width="36" height="22" x="420" y="277" rx="10" ry="10"/><text x="438" y="292">&apos;&apos;</text></g><path d="M520 288a10 10 0 0 0 10 -10v-10a10 10 0 0 1 10 -10"/></g><path d="M540 258h10"/><path d="M336 258a10 10 0 0 0 -10 10v29a10 10 0 0 0 10 10"/><g><path d="M336 307h204"/></g><path d="M540 307a10 10 0 0 0 10 -10v-29a10 10 0 0 0 -10 -10"/></g><path d="M550 258h20"/></g><path d="M570 258h10"/><g class="terminal"><path d="M580 258h0"/><path d="M608 258h0"/><rect width="28" height="22" x="580" y="247" rx="10" ry="10"/><text x="594" y="262">&apos;</text></g></g><path d="M816 258a10 10 0 0 0 10 -10v-207a10 10 0 0 1 10 -10"/><path d="M40 31a10 10 0 0 1 10 10v284a10 10 0 0 0 10 10"/><g><path d="M60 335h240"/><path d="M576 335h240"/><g class="terminal"><path d="M300 335h0"/><path d="M336 335h0"/><rect width="36" height="22" x="300" y="324" rx="10" ry="10"/><text x="318" y="339">x&apos;</text></g><path d="M336 335h10"/><g><path d="M346 335h0"/><path d="M538 335h0"/><path d="M346 335a10 10 0 0 0 10 -10v0a10 10 0 0 1 10 -10"/><g><path d="M366 315h152"/></g><path d="M518 315a10 10 0 0 1 10 10v0a10 10 0 0 0 10 10"/><path d="M346 335h20"/><g><path d="M366 335h0"/><path d="M518 335h0"/><path d="M366 335h10"/><g class="non-terminal"><path d="M376 335h0"/><path d="M508 335h0"/><rect width="132" height="22" x="376" y="324"/><text x="442" y="339">hex-digit-pair</text></g><path d="M508 335h10"/><path d="M376 335a10 10 0 0 0 -10 10v0a10 10 0 0 0 10 10"/><g><path d="M376 355h132"/></g><path d="M508 355a10 10 0 0 0 10 -10v0a10 10 0 0 0 -10 -10"/></g><path d="M518 335h20"/></g><path d="M538 335h10"/><g class="terminal"><path d="M548 335h0"/><path d="M576 335h0"/><rect width="28" height="22" x="548" y="324" rx="10" ry="10"/><text x="562" y="339">&apos;</text></g></g><path d="M816 335a10 10 0 0 0 10 -10v-284a10 10 0 0 1 10 -10"/><path d="M40 31a10 10 0 0 1 10 10v340a10 10 0 0 0 10 10"/><g><path d="M60 391h97"/><path d="M719 391h97"/><g class="non-terminal"><path d="M157 391h0"/><path d="M257 391h0"/><rect width="100" height="22" x="157" y="380"/><text x="207" y="395">yyyy-MM-dd</text></g><path d="M257 391h10"/><g><path d="M267 391h0"/><path d="M719 391h0"/><path d="M267 391a10 10 0 0 0 10 -10v-8a10 10 0 0 1 10 -10"/><g><path d="M287 363h412"/></g><path d="M699 363a10 10 0 0 1 10 10v8a10 10 0 0 0 10 10"/><path d="M267 391h20"/><g><path d="M287 391h0"/><path d="M699 391h0"/><g class="non-terminal"><path d="M287 391h0"/><path d="M379 391h0"/><rect width="92" height="22" x="287" y="380"/><text x="333" y="395">THH:mm:ss</text></g><path d="M379 391h10"/><g><path d="M389 391h0"/><path d="M521 391h0"/><path d="M389 391a10 10 0 0 0 10 -10v0a10 10 0 0 1 10 -10"/><g><path d="M409 371h92"/></g><path d="M501 371a10 10 0 0 1 10 10v0a10 10 0 0 0 10 10"/><path d="M389 391h20"/><g><path d="M409 391h0"/><path d="M501 391h0"/><g class="terminal"><path d="M409 391h0"/><path d="M437 391h0"/><rect width="28" height="22" x="409" y="380" rx="10" ry="10"/><text x="423" y="395">.</text></g><path d="M437 391h10"/><path d="M447 391h10"/><g class="non-terminal"><path d="M457 391h0"/><path d="M501 391h0"/><rect width="44" height="22" x="457" y="380"/><text x="479" y="395">fff</text></g></g><path d="M501 391h20"/></g><g><path d="M521 391h0"/><path d="M699 391h0"/><path d="M521 391a10 10 0 0 0 10 -10v0a10 10 0 0 1 10 -10"/><g><path d="M541 371h138"/></g><path d="M679 371a10 10 0 0 1 10 10v0a10 10 0 0 0 10 10"/><path d="M521 391h20"/><g><path d="M541 391h0"/><path d="M679 391h0"/><g><path d="M541 391h0"/><path d="M609 391h0"/><path d="M541 391h20"/><g class="terminal"><path d="M561 391h0"/><path d="M589 391h0"/><rect width="28" height="22" x="561" y="380" rx="10" ry="10"/><text x="575" y="395">+</text></g><path d="M589 391h20"/><path d="M541 391a10 10 0 0 1 10 10v10a10 10 0 0 0 10 10"/><g class="terminal"><path d="M561 421h0"/><path d="M589 421h0"/><rect width="28" height="22" x="561" y="410" rx="10" ry="10"/><text x="575" y="425">-</text></g><path d="M589 421a10 10 0 0 0 10 -10v-10a10 10 0 0 1 10 -10"/></g><path d="M609 391h10"/><g class="non-terminal"><path d="M619 391h0"/><path d="M679 391h0"/><rect width="60" height="22" x="619" y="380"/><text x="649" y="395">HH:mm</text></g></g><path d="M679 391h20"/></g></g><path d="M699 391h20"/></g></g><path d="M816 391a10 10 0 0 0 10 -10v-340a10 10 0 0 1 10 -10"/></g><path d="M 836 31 h 20 m -10 -10 v 20 m 10 -20 v 20"/></g></svg>