<svg xmlns="http://www.w3.org/2000/svg" width="292" height="82" class="railroad-diagram" viewBox="0 0 292 82"><g transform="translate(.5 .5)"><style type="text/css">svg.railroad-diagram path,svg.railroad-diagram rect{stroke-width:3;stroke:#000;fill:transparent}svg.railroad-diagram rect{fill:#def}svg.railroad-diagram text{font-family:&quot;Consolas&quot;,&quot;Monospace&quot;;font-size:14px;font-weight:700;text-anchor:middle}svg.railroad-diagram g.non-terminal text{font-style:italic}</style><path d="M 20 21 v 20 m 10 -20 v 20 m -10 -10 h 20.5"/><g><path d="M40 31h0"/><path d="M180 31h0"/><path d="M40 31h20"/><g><path d="M60 31h100"/></g><path d="M160 31h20"/><path d="M40 31a10 10 0 0 1 10 10v0a10 10 0 0 0 10 10"/><g><path d="M60 51h0"/><path d="M160 51h0"/><g class="non-terminal"><path d="M60 51h0"/><path d="M112 51h0"/><rect width="52" height="22" x="60" y="40"/><a href="https://rspeele.gitbooks.io/rezoom-sql/doc/Language/Name.html#name"><text x="86" y="55">name</text><text x="86" y="55">name</text></a></g><path d="M112 51h10"/><path d="M122 51h10"/><g class="terminal"><path d="M132 51h0"/><path d="M160 51h0"/><rect width="28" height="22" x="132" y="40" rx="10" ry="10"/><text x="146" y="55">.</text></g></g><path d="M160 51a10 10 0 0 0 10 -10v0a10 10 0 0 1 10 -10"/></g><path d="M180 31h10"/><g class="non-terminal"><path d="M190 31h0"/><path d="M242 31h0"/><rect width="52" height="22" x="190" y="20"/><a href="https://rspeele.gitbooks.io/rezoom-sql/doc/Language/Name.html#name"><text x="216" y="35">name</text><text x="216" y="35">name</text></a></g><path d="M242 31h10"/><path d="M 252 31 h 20 m -10 -10 v 20 m 10 -20 v 20"/></g></svg>