<svg xmlns="http://www.w3.org/2000/svg" width="640" height="157" class="railroad-diagram" viewBox="0 0 640 157"><g transform="translate(.5 .5)"><style type="text/css">svg.railroad-diagram path,svg.railroad-diagram rect{stroke-width:3;stroke:#000;fill:transparent}svg.railroad-diagram rect{fill:#def}svg.railroad-diagram text{font-family:&quot;Consolas&quot;,&quot;Monospace&quot;;font-size:14px;font-weight:700;text-anchor:middle}svg.railroad-diagram g.non-terminal text{font-style:italic}</style><path d="M 20 30 v 20 m 10 -20 v 20 m -10 -10 h 20.5"/><path d="M40 40h10"/><g><path d="M50 40h0"/><path d="M50 40h10"/><g><path d="M60 40h10"/><path d="M570 40h10"/><g class="terminal"><path d="M70 40h0"/><path d="M218 40h0"/><rect width="148" height="22" x="70" y="29" rx="10" ry="10"/><text x="144" y="44">REQUIRED KEYWORD</text></g><path d="M218 40h10"/><g><path d="M228 40h0"/><path d="M416 40h0"/><path d="M228 40a10 10 0 0 0 10 -10v0a10 10 0 0 1 10 -10"/><g><path d="M248 20h148"/></g><path d="M396 20a10 10 0 0 1 10 10v0a10 10 0 0 0 10 10"/><path d="M228 40h20"/><g><path d="M248 40h0"/><path d="M396 40h0"/><g class="terminal"><path d="M248 40h0"/><path d="M396 40h0"/><rect width="148" height="22" x="248" y="29" rx="10" ry="10"/><text x="322" y="44">OPTIONAL KEYWORD</text></g></g><path d="M396 40h20"/></g><path d="M416 40h10"/><g><path d="M426 40h0"/><path d="M570 40h0"/><path d="M426 40h10"/><g class="terminal"><path d="M436 40h0"/><path d="M560 40h0"/><rect width="124" height="22" x="436" y="29" rx="10" ry="10"/><text x="498" y="44">MANY OF THESE</text></g><path d="M560 40h10"/><path d="M436 40a10 10 0 0 0 -10 10v0a10 10 0 0 0 10 10"/><g><path d="M436 60h124"/></g><path d="M560 60a10 10 0 0 0 10 -10v0a10 10 0 0 0 -10 -10"/></g></g><path d="M580 40a10 10 0 0 1 10 10v8a10 10 0 0 1 -10 10h-520a10 10 0 0 0 -10 10v8a10 10 0 0 0 10 10"/><g><path d="M60 96h138"/><path d="M442 96h138"/><g class="terminal"><path d="M198 96h0"/><path d="M226 96h0"/><rect width="28" height="22" x="198" y="85" rx="10" ry="10"/><text x="212" y="100">(</text></g><path d="M226 96h10"/><g><path d="M236 96h0"/><path d="M404 96h0"/><path d="M236 96a10 10 0 0 0 10 -10v0a10 10 0 0 1 10 -10"/><g><path d="M256 76h128"/></g><path d="M384 76a10 10 0 0 1 10 10v0a10 10 0 0 0 10 10"/><path d="M236 96h20"/><g><path d="M256 96h0"/><path d="M384 96h0"/><path d="M256 96h10"/><g class="non-terminal"><path d="M266 96h0"/><path d="M374 96h0"/><rect width="108" height="22" x="266" y="85"/><text x="320" y="100">other-thing</text></g><path d="M374 96h10"/><path d="M266 96a10 10 0 0 0 -10 10v10a10 10 0 0 0 10 10"/><g class="terminal"><path d="M266 126h40"/><path d="M334 126h40"/><rect width="28" height="22" x="306" y="115" rx="10" ry="10"/><text x="320" y="130">,</text></g><path d="M374 126a10 10 0 0 0 10 -10v-10a10 10 0 0 0 -10 -10"/></g><path d="M384 96h20"/></g><path d="M404 96h10"/><g class="terminal"><path d="M414 96h0"/><path d="M442 96h0"/><rect width="28" height="22" x="414" y="85" rx="10" ry="10"/><text x="428" y="100">)</text></g></g><path d="M580 96h10"/><path d="M590 96h0"/></g><path d="M590 96h10"/><path d="M 600 96 h 20 m -10 -10 v 20 m 10 -20 v 20"/></g></svg>