<svg xmlns="http://www.w3.org/2000/svg" width="558" height="297" class="railroad-diagram" viewBox="0 0 558 297"><g transform="translate(.5 .5)"><style type="text/css">svg.railroad-diagram path,svg.railroad-diagram rect{stroke-width:3;stroke:#000;fill:transparent}svg.railroad-diagram rect{fill:#def}svg.railroad-diagram text{font-family:&quot;Consolas&quot;,&quot;Monospace&quot;;font-size:14px;font-weight:700;text-anchor:middle}svg.railroad-diagram g.non-terminal text{font-style:italic}</style><path d="M 20 21 v 20 m 10 -20 v 20 m -10 -10 h 20.5"/><path d="M40 31h10"/><g><path d="M50 31h0"/><path d="M50 31h10"/><g><path d="M60 31h33"/><path d="M465 31h33"/><g class="terminal"><path d="M93 31h0"/><path d="M161 31h0"/><rect width="68" height="22" x="93" y="20" rx="10" ry="10"/><text x="127" y="35">SELECT</text></g><path d="M161 31h10"/><g><path d="M171 31h0"/><path d="M295 31h0"/><path d="M171 31h20"/><g><path d="M191 31h84"/></g><path d="M275 31h20"/><path d="M171 31a10 10 0 0 1 10 10v0a10 10 0 0 0 10 10"/><g class="terminal"><path d="M191 51h0"/><path d="M275 51h0"/><rect width="84" height="22" x="191" y="40" rx="10" ry="10"/><text x="233" y="55">DISTINCT</text></g><path d="M275 51a10 10 0 0 0 10 -10v0a10 10 0 0 1 10 -10"/></g><path d="M295 31h10"/><g><path d="M305 31h0"/><path d="M465 31h0"/><path d="M305 31h10"/><g class="non-terminal"><path d="M315 31h0"/><path d="M455 31h0"/><rect width="140" height="22" x="315" y="20"/><a href="https://rspeele.gitbooks.io/rezoom-sql/doc/Language/SelectStmt.html#select-property"><text x="385" y="35">select-property</text><text x="385" y="35">select-property</text></a></g><path d="M455 31h10"/><path d="M315 31a10 10 0 0 0 -10 10v0a10 10 0 0 0 10 10"/><g><path d="M315 51h140"/></g><path d="M455 51a10 10 0 0 0 10 -10v0a10 10 0 0 0 -10 -10"/></g></g><path d="M498 31a10 10 0 0 1 10 10v19a10 10 0 0 1 -10 10h-438a10 10 0 0 0 -10 10v0a10 10 0 0 0 10 10"/><g><path d="M60 90h113"/><path d="M385 90h113"/><path d="M173 90h20"/><g><path d="M193 90h172"/></g><path d="M365 90h20"/><path d="M173 90a10 10 0 0 1 10 10v0a10 10 0 0 0 10 10"/><g><path d="M193 110h0"/><path d="M365 110h0"/><g class="terminal"><path d="M193 110h0"/><path d="M245 110h0"/><rect width="52" height="22" x="193" y="99" rx="10" ry="10"/><text x="219" y="114">FROM</text></g><path d="M245 110h10"/><path d="M255 110h10"/><g class="non-terminal"><path d="M265 110h0"/><path d="M365 110h0"/><rect width="100" height="22" x="265" y="99"/><a href="https://rspeele.gitbooks.io/rezoom-sql/doc/Language/SelectStmt.html#table-expr"><text x="315" y="114">table-expr</text><text x="315" y="114">table-expr</text></a></g></g><path d="M365 110a10 10 0 0 0 10 -10v0a10 10 0 0 1 10 -10"/></g><path d="M498 90a10 10 0 0 1 10 10v19a10 10 0 0 1 -10 10h-438a10 10 0 0 0 -10 10v0a10 10 0 0 0 10 10"/><g><path d="M60 149h133"/><path d="M365 149h133"/><path d="M193 149h20"/><g><path d="M213 149h132"/></g><path d="M345 149h20"/><path d="M193 149a10 10 0 0 1 10 10v0a10 10 0 0 0 10 10"/><g><path d="M213 169h0"/><path d="M345 169h0"/><g class="terminal"><path d="M213 169h0"/><path d="M273 169h0"/><rect width="60" height="22" x="213" y="158" rx="10" ry="10"/><text x="243" y="173">WHERE</text></g><path d="M273 169h10"/><path d="M283 169h10"/><g class="non-terminal"><path d="M293 169h0"/><path d="M345 169h0"/><rect width="52" height="22" x="293" y="158"/><a href="https://rspeele.gitbooks.io/rezoom-sql/doc/Language/Expr.html#expr"><text x="319" y="173">expr</text><text x="319" y="173">expr</text></a></g></g><path d="M345 169a10 10 0 0 0 10 -10v0a10 10 0 0 1 10 -10"/></g><path d="M498 149a10 10 0 0 1 10 10v19a10 10 0 0 1 -10 10h-438a10 10 0 0 0 -10 10v0a10 10 0 0 0 10 10"/><g><path d="M60 208h0"/><path d="M498 208h0"/><path d="M60 208h20"/><g><path d="M80 208h398"/></g><path d="M478 208h20"/><path d="M60 208a10 10 0 0 1 10 10v8a10 10 0 0 0 10 10"/><g><path d="M80 236h0"/><path d="M478 236h0"/><g class="terminal"><path d="M80 236h0"/><path d="M140 236h0"/><rect width="60" height="22" x="80" y="225" rx="10" ry="10"/><text x="110" y="240">GROUP</text></g><path d="M140 236h10"/><path d="M150 236h10"/><g class="terminal"><path d="M160 236h0"/><path d="M196 236h0"/><rect width="36" height="22" x="160" y="225" rx="10" ry="10"/><text x="178" y="240">BY</text></g><path d="M196 236h10"/><path d="M206 236h10"/><g><path d="M216 236h0"/><path d="M288 236h0"/><path d="M216 236h10"/><g class="non-terminal"><path d="M226 236h0"/><path d="M278 236h0"/><rect width="52" height="22" x="226" y="225"/><a href="https://rspeele.gitbooks.io/rezoom-sql/doc/Language/Expr.html#expr"><text x="252" y="240">expr</text><text x="252" y="240">expr</text></a></g><path d="M278 236h10"/><path d="M226 236a10 10 0 0 0 -10 10v10a10 10 0 0 0 10 10"/><g class="terminal"><path d="M226 266h12"/><path d="M266 266h12"/><rect width="28" height="22" x="238" y="255" rx="10" ry="10"/><text x="252" y="270">,</text></g><path d="M278 266a10 10 0 0 0 10 -10v-10a10 10 0 0 0 -10 -10"/></g><path d="M288 236h10"/><g><path d="M298 236h0"/><path d="M478 236h0"/><path d="M298 236a10 10 0 0 0 10 -10v0a10 10 0 0 1 10 -10"/><g><path d="M318 216h140"/></g><path d="M458 216a10 10 0 0 1 10 10v0a10 10 0 0 0 10 10"/><path d="M298 236h20"/><g><path d="M318 236h0"/><path d="M458 236h0"/><g class="terminal"><path d="M318 236h0"/><path d="M386 236h0"/><rect width="68" height="22" x="318" y="225" rx="10" ry="10"/><text x="352" y="240">HAVING</text></g><path d="M386 236h10"/><path d="M396 236h10"/><g class="non-terminal"><path d="M406 236h0"/><path d="M458 236h0"/><rect width="52" height="22" x="406" y="225"/><a href="https://rspeele.gitbooks.io/rezoom-sql/doc/Language/Expr.html#expr"><text x="432" y="240">expr</text><text x="432" y="240">expr</text></a></g></g><path d="M458 236h20"/></g></g><path d="M478 236a10 10 0 0 0 10 -10v-8a10 10 0 0 1 10 -10"/></g><path d="M498 208h10"/><path d="M508 208h0"/></g><path d="M508 208h10"/><path d="M 518 208 h 20 m -10 -10 v 20 m 10 -20 v 20"/></g></svg>