<svg xmlns="http://www.w3.org/2000/svg" width="692" height="298" class="railroad-diagram" viewBox="0 0 692 298"><g transform="translate(.5 .5)"><style type="text/css">svg.railroad-diagram path,svg.railroad-diagram rect{stroke-width:3;stroke:#000;fill:transparent}svg.railroad-diagram rect{fill:#def}svg.railroad-diagram text{font-family:&quot;Consolas&quot;,&quot;Monospace&quot;;font-size:14px;font-weight:700;text-anchor:middle}svg.railroad-diagram g.non-terminal text{font-style:italic}</style><path d="M 20 20 v 20 m 10 -20 v 20 m -10 -10 h 20.5"/><path d="M40 30h10"/><g><path d="M50 30h0"/><path d="M50 30h10"/><g><path d="M60 30h180"/><path d="M452 30h180"/><path d="M240 30h20"/><g><path d="M260 30h172"/></g><path d="M432 30h20"/><path d="M240 30a10 10 0 0 1 10 10v0a10 10 0 0 0 10 10"/><g><path d="M260 50h0"/><path d="M432 50h0"/><g class="terminal"><path d="M260 50h0"/><path d="M360 50h0"/><rect width="100" height="22" x="260" y="39" rx="10" ry="10"/><text x="310" y="54">CONSTRAINT</text></g><path d="M360 50h10"/><path d="M370 50h10"/><g class="non-terminal"><path d="M380 50h0"/><path d="M432 50h0"/><rect width="52" height="22" x="380" y="39"/><a href="https://rspeele.gitbooks.io/rezoom-sql/doc/Language/Name.html#name"><text x="406" y="54">name</text><text x="406" y="54">name</text></a></g></g><path d="M432 50a10 10 0 0 0 10 -10v0a10 10 0 0 1 10 -10"/></g><path d="M632 30a10 10 0 0 1 10 10v19a10 10 0 0 1 -10 10h-572a10 10 0 0 0 -10 10v8a10 10 0 0 0 10 10"/><g><path d="M60 97h0"/><path d="M632 97h0"/><path d="M60 97h20"/><g><path d="M80 97h0"/><path d="M612 97h0"/><g class="terminal"><path d="M80 97h0"/><path d="M156 97h0"/><rect width="76" height="22" x="80" y="86" rx="10" ry="10"/><text x="118" y="101">FOREIGN</text></g><path d="M156 97h10"/><path d="M166 97h10"/><g class="terminal"><path d="M176 97h0"/><path d="M220 97h0"/><rect width="44" height="22" x="176" y="86" rx="10" ry="10"/><text x="198" y="101">KEY</text></g><path d="M220 97h10"/><path d="M230 97h10"/><g class="terminal"><path d="M240 97h0"/><path d="M268 97h0"/><rect width="28" height="22" x="240" y="86" rx="10" ry="10"/><text x="254" y="101">(</text></g><path d="M268 97h10"/><g><path d="M278 97h0"/><path d="M390 97h0"/><path d="M278 97a10 10 0 0 0 10 -10v0a10 10 0 0 1 10 -10"/><g><path d="M298 77h72"/></g><path d="M370 77a10 10 0 0 1 10 10v0a10 10 0 0 0 10 10"/><path d="M278 97h20"/><g><path d="M298 97h0"/><path d="M370 97h0"/><path d="M298 97h10"/><g class="non-terminal"><path d="M308 97h0"/><path d="M360 97h0"/><rect width="52" height="22" x="308" y="86"/><a href="https://rspeele.gitbooks.io/rezoom-sql/doc/Language/Name.html#name"><text x="334" y="101">name</text><text x="334" y="101">name</text></a></g><path d="M360 97h10"/><path d="M308 97a10 10 0 0 0 -10 10v10a10 10 0 0 0 10 10"/><g class="terminal"><path d="M308 127h12"/><path d="M348 127h12"/><rect width="28" height="22" x="320" y="116" rx="10" ry="10"/><text x="334" y="131">,</text></g><path d="M360 127a10 10 0 0 0 10 -10v-10a10 10 0 0 0 -10 -10"/></g><path d="M370 97h20"/></g><path d="M390 97h10"/><g class="terminal"><path d="M400 97h0"/><path d="M428 97h0"/><rect width="28" height="22" x="400" y="86" rx="10" ry="10"/><text x="414" y="101">)</text></g><path d="M428 97h10"/><path d="M438 97h10"/><g class="non-terminal"><path d="M448 97h0"/><path d="M612 97h0"/><rect width="164" height="22" x="448" y="86"/><a href="https://rspeele.gitbooks.io/rezoom-sql/doc/Language/CreateTableStmt.html#foreign-key-clause"><text x="530" y="101">foreign-key-clause</text><text x="530" y="101">foreign-key-clause</text></a></g></g><path d="M612 97h20"/><path d="M60 97a10 10 0 0 1 10 10v40a10 10 0 0 0 10 10"/><g><path d="M80 157h152"/><path d="M460 157h152"/><g class="terminal"><path d="M232 157h0"/><path d="M292 157h0"/><rect width="60" height="22" x="232" y="146" rx="10" ry="10"/><text x="262" y="161">CHECK</text></g><path d="M292 157h10"/><path d="M302 157h10"/><g class="terminal"><path d="M312 157h0"/><path d="M340 157h0"/><rect width="28" height="22" x="312" y="146" rx="10" ry="10"/><text x="326" y="161">(</text></g><path d="M340 157h10"/><path d="M350 157h10"/><g class="non-terminal"><path d="M360 157h0"/><path d="M412 157h0"/><rect width="52" height="22" x="360" y="146"/><a href="https://rspeele.gitbooks.io/rezoom-sql/doc/Language/Expr.html#expr"><text x="386" y="161">expr</text><text x="386" y="161">expr</text></a></g><path d="M412 157h10"/><path d="M422 157h10"/><g class="terminal"><path d="M432 157h0"/><path d="M460 157h0"/><rect width="28" height="22" x="432" y="146" rx="10" ry="10"/><text x="446" y="161">)</text></g></g><path d="M612 157a10 10 0 0 0 10 -10v-40a10 10 0 0 1 10 -10"/><path d="M60 97a10 10 0 0 1 10 10v70a10 10 0 0 0 10 10"/><g><path d="M80 187h16"/><path d="M596 187h16"/><g><path d="M96 187h0"/><path d="M276 187h0"/><path d="M96 187h20"/><g class="terminal"><path d="M116 187h36"/><path d="M220 187h36"/><rect width="68" height="22" x="152" y="176" rx="10" ry="10"/><text x="186" y="191">UNIQUE</text></g><path d="M256 187h20"/><path d="M96 187a10 10 0 0 1 10 10v10a10 10 0 0 0 10 10"/><g><path d="M116 217h0"/><path d="M256 217h0"/><g class="terminal"><path d="M116 217h0"/><path d="M192 217h0"/><rect width="76" height="22" x="116" y="206" rx="10" ry="10"/><text x="154" y="221">PRIMARY</text></g><path d="M192 217h10"/><path d="M202 217h10"/><g class="terminal"><path d="M212 217h0"/><path d="M256 217h0"/><rect width="44" height="22" x="212" y="206" rx="10" ry="10"/><text x="234" y="221">KEY</text></g></g><path d="M256 217a10 10 0 0 0 10 -10v-10a10 10 0 0 1 10 -10"/></g><path d="M276 187h10"/><g class="terminal"><path d="M286 187h0"/><path d="M314 187h0"/><rect width="28" height="22" x="286" y="176" rx="10" ry="10"/><text x="300" y="191">(</text></g><path d="M314 187h10"/><path d="M324 187h10"/><g><path d="M334 187h0"/><path d="M548 187h0"/><path d="M334 187h10"/><g><path d="M344 187h0"/><path d="M538 187h0"/><g class="non-terminal"><path d="M344 187h0"/><path d="M396 187h0"/><rect width="52" height="22" x="344" y="176"/><a href="https://rspeele.gitbooks.io/rezoom-sql/doc/Language/Name.html#name"><text x="370" y="191">name</text><text x="370" y="191">name</text></a></g><path d="M396 187h10"/><g><path d="M406 187h0"/><path d="M538 187h0"/><path d="M406 187h20"/><g><path d="M426 187h92"/></g><path d="M518 187h20"/><path d="M406 187a10 10 0 0 1 10 10v0a10 10 0 0 0 10 10"/><g><path d="M426 207h0"/><path d="M518 207h0"/><path d="M426 207h20"/><g class="terminal"><path d="M446 207h4"/><path d="M494 207h4"/><rect width="44" height="22" x="450" y="196" rx="10" ry="10"/><text x="472" y="211">ASC</text></g><path d="M498 207h20"/><path d="M426 207a10 10 0 0 1 10 10v10a10 10 0 0 0 10 10"/><g class="terminal"><path d="M446 237h0"/><path d="M498 237h0"/><rect width="52" height="22" x="446" y="226" rx="10" ry="10"/><text x="472" y="241">DESC</text></g><path d="M498 237a10 10 0 0 0 10 -10v-10a10 10 0 0 1 10 -10"/></g><path d="M518 207a10 10 0 0 0 10 -10v0a10 10 0 0 1 10 -10"/></g></g><path d="M538 187h10"/><path d="M344 187a10 10 0 0 0 -10 10v60a10 10 0 0 0 10 10"/><g class="terminal"><path d="M344 267h83"/><path d="M455 267h83"/><rect width="28" height="22" x="427" y="256" rx="10" ry="10"/><text x="441" y="271">,</text></g><path d="M538 267a10 10 0 0 0 10 -10v-60a10 10 0 0 0 -10 -10"/></g><path d="M548 187h10"/><path d="M558 187h10"/><g class="terminal"><path d="M568 187h0"/><path d="M596 187h0"/><rect width="28" height="22" x="568" y="176" rx="10" ry="10"/><text x="582" y="191">)</text></g></g><path d="M612 187a10 10 0 0 0 10 -10v-70a10 10 0 0 1 10 -10"/></g><path d="M632 97h10"/><path d="M642 97h0"/></g><path d="M642 97h10"/><path d="M 652 97 h 20 m -10 -10 v 20 m 10 -20 v 20"/></g></svg>