<svg xmlns="http://www.w3.org/2000/svg" width="464" height="491" class="railroad-diagram" viewBox="0 0 464 491"><g transform="translate(.5 .5)"><style type="text/css">svg.railroad-diagram path,svg.railroad-diagram rect{stroke-width:3;stroke:#000;fill:transparent}svg.railroad-diagram rect{fill:#def}svg.railroad-diagram text{font-family:&quot;Consolas&quot;,&quot;Monospace&quot;;font-size:14px;font-weight:700;text-anchor:middle}svg.railroad-diagram g.non-terminal text{font-style:italic}</style><path d="M 20 30 v 20 m 10 -20 v 20 m -10 -10 h 20.5"/><g><path d="M40 40h0"/><path d="M424 40h0"/><path d="M40 40h20"/><g><path d="M60 40h0"/><path d="M404 40h0"/><g><path d="M60 40h0"/><path d="M168 40h0"/><path d="M60 40h20"/><g class="terminal"><path d="M80 40h0"/><path d="M148 40h0"/><rect width="68" height="22" x="80" y="29" rx="10" ry="10"/><text x="114" y="44">STRING</text></g><path d="M148 40h20"/><path d="M60 40a10 10 0 0 1 10 10v10a10 10 0 0 0 10 10"/><g class="terminal"><path d="M80 70h0"/><path d="M148 70h0"/><rect width="68" height="22" x="80" y="59" rx="10" ry="10"/><text x="114" y="74">BINARY</text></g><path d="M148 70a10 10 0 0 0 10 -10v-10a10 10 0 0 1 10 -10"/></g><g><path d="M168 40h0"/><path d="M404 40h0"/><path d="M168 40a10 10 0 0 0 10 -10v0a10 10 0 0 1 10 -10"/><g><path d="M188 20h196"/></g><path d="M384 20a10 10 0 0 1 10 10v0a10 10 0 0 0 10 10"/><path d="M168 40h20"/><g><path d="M188 40h0"/><path d="M384 40h0"/><g class="terminal"><path d="M188 40h0"/><path d="M216 40h0"/><rect width="28" height="22" x="188" y="29" rx="10" ry="10"/><text x="202" y="44">(</text></g><path d="M216 40h10"/><path d="M226 40h10"/><g class="non-terminal"><path d="M236 40h0"/><path d="M336 40h0"/><rect width="100" height="22" x="236" y="29"/><text x="286" y="44">max-length</text></g><path d="M336 40h10"/><path d="M346 40h10"/><g class="terminal"><path d="M356 40h0"/><path d="M384 40h0"/><rect width="28" height="22" x="356" y="29" rx="10" ry="10"/><text x="370" y="44">)</text></g></g><path d="M384 40h20"/></g></g><path d="M404 40h20"/><path d="M40 40a10 10 0 0 1 10 10v40a10 10 0 0 0 10 10"/><g class="terminal"><path d="M60 100h146"/><path d="M258 100h146"/><rect width="52" height="22" x="206" y="89" rx="10" ry="10"/><text x="232" y="104">INT8</text></g><path d="M404 100a10 10 0 0 0 10 -10v-40a10 10 0 0 1 10 -10"/><path d="M40 40a10 10 0 0 1 10 10v70a10 10 0 0 0 10 10"/><g class="terminal"><path d="M60 130h142"/><path d="M262 130h142"/><rect width="60" height="22" x="202" y="119" rx="10" ry="10"/><text x="232" y="134">INT16</text></g><path d="M404 130a10 10 0 0 0 10 -10v-70a10 10 0 0 1 10 -10"/><path d="M40 40a10 10 0 0 1 10 10v100a10 10 0 0 0 10 10"/><g><path d="M60 160h122"/><path d="M282 160h122"/><path d="M182 160h20"/><g class="terminal"><path d="M202 160h0"/><path d="M262 160h0"/><rect width="60" height="22" x="202" y="149" rx="10" ry="10"/><text x="232" y="164">INT32</text></g><path d="M262 160h20"/><path d="M182 160a10 10 0 0 1 10 10v10a10 10 0 0 0 10 10"/><g class="terminal"><path d="M202 190h8"/><path d="M254 190h8"/><rect width="44" height="22" x="210" y="179" rx="10" ry="10"/><text x="232" y="194">INT</text></g><path d="M262 190a10 10 0 0 0 10 -10v-10a10 10 0 0 1 10 -10"/></g><path d="M404 160a10 10 0 0 0 10 -10v-100a10 10 0 0 1 10 -10"/><path d="M40 40a10 10 0 0 1 10 10v160a10 10 0 0 0 10 10"/><g class="terminal"><path d="M60 220h142"/><path d="M262 220h142"/><rect width="60" height="22" x="202" y="209" rx="10" ry="10"/><text x="232" y="224">INT64</text></g><path d="M404 220a10 10 0 0 0 10 -10v-160a10 10 0 0 1 10 -10"/><path d="M40 40a10 10 0 0 1 10 10v190a10 10 0 0 0 10 10"/><g class="terminal"><path d="M60 250h134"/><path d="M270 250h134"/><rect width="76" height="22" x="194" y="239" rx="10" ry="10"/><text x="232" y="254">FLOAT32</text></g><path d="M404 250a10 10 0 0 0 10 -10v-190a10 10 0 0 1 10 -10"/><path d="M40 40a10 10 0 0 1 10 10v220a10 10 0 0 0 10 10"/><g><path d="M60 280h114"/><path d="M290 280h114"/><path d="M174 280h20"/><g class="terminal"><path d="M194 280h0"/><path d="M270 280h0"/><rect width="76" height="22" x="194" y="269" rx="10" ry="10"/><text x="232" y="284">FLOAT64</text></g><path d="M270 280h20"/><path d="M174 280a10 10 0 0 1 10 10v10a10 10 0 0 0 10 10"/><g class="terminal"><path d="M194 310h8"/><path d="M262 310h8"/><rect width="60" height="22" x="202" y="299" rx="10" ry="10"/><text x="232" y="314">FLOAT</text></g><path d="M270 310a10 10 0 0 0 10 -10v-10a10 10 0 0 1 10 -10"/></g><path d="M404 280a10 10 0 0 0 10 -10v-220a10 10 0 0 1 10 -10"/><path d="M40 40a10 10 0 0 1 10 10v280a10 10 0 0 0 10 10"/><g class="terminal"><path d="M60 340h134"/><path d="M270 340h134"/><rect width="76" height="22" x="194" y="329" rx="10" ry="10"/><text x="232" y="344">DECIMAL</text></g><path d="M404 340a10 10 0 0 0 10 -10v-280a10 10 0 0 1 10 -10"/><path d="M40 40a10 10 0 0 1 10 10v310a10 10 0 0 0 10 10"/><g class="terminal"><path d="M60 370h146"/><path d="M258 370h146"/><rect width="52" height="22" x="206" y="359" rx="10" ry="10"/><text x="232" y="374">BOOL</text></g><path d="M404 370a10 10 0 0 0 10 -10v-310a10 10 0 0 1 10 -10"/><path d="M40 40a10 10 0 0 1 10 10v340a10 10 0 0 0 10 10"/><g class="terminal"><path d="M60 400h146"/><path d="M258 400h146"/><rect width="52" height="22" x="206" y="389" rx="10" ry="10"/><text x="232" y="404">GUID</text></g><path d="M404 400a10 10 0 0 0 10 -10v-340a10 10 0 0 1 10 -10"/><path d="M40 40a10 10 0 0 1 10 10v370a10 10 0 0 0 10 10"/><g class="terminal"><path d="M60 430h130"/><path d="M274 430h130"/><rect width="84" height="22" x="190" y="419" rx="10" ry="10"/><text x="232" y="434">DATETIME</text></g><path d="M404 430a10 10 0 0 0 10 -10v-370a10 10 0 0 1 10 -10"/><path d="M40 40a10 10 0 0 1 10 10v400a10 10 0 0 0 10 10"/><g class="terminal"><path d="M60 460h106"/><path d="M298 460h106"/><rect width="132" height="22" x="166" y="449" rx="10" ry="10"/><text x="232" y="464">DATETIMEOFFSET</text></g><path d="M404 460a10 10 0 0 0 10 -10v-400a10 10 0 0 1 10 -10"/></g><path d="M 424 40 h 20 m -10 -10 v 20 m 10 -20 v 20"/></g></svg>