<svg xmlns="http://www.w3.org/2000/svg" width="612" height="151" class="railroad-diagram" viewBox="0 0 612 151"><g transform="translate(.5 .5)"><style type="text/css">svg.railroad-diagram path,svg.railroad-diagram rect{stroke-width:3;stroke:#000;fill:transparent}svg.railroad-diagram rect{fill:#def}svg.railroad-diagram text{font-family:&quot;Consolas&quot;,&quot;Monospace&quot;;font-size:14px;font-weight:700;text-anchor:middle}svg.railroad-diagram g.non-terminal text{font-style:italic}</style><path d="M 20 21 v 20 m 10 -20 v 20 m -10 -10 h 20.5"/><path d="M40 31h10"/><g><path d="M50 31h0"/><path d="M50 31h10"/><g><path d="M60 31h10"/><path d="M542 31h10"/><g class="terminal"><path d="M70 31h0"/><path d="M138 31h0"/><rect width="68" height="22" x="70" y="20" rx="10" ry="10"/><text x="104" y="35">UPDATE</text></g><path d="M138 31h10"/><path d="M148 31h10"/><g class="non-terminal"><path d="M158 31h0"/><path d="M266 31h0"/><rect width="108" height="22" x="158" y="20"/><a href="https://rspeele.gitbooks.io/rezoom-sql/doc/Language/Name.html#object-name"><text x="212" y="35">object-name</text><text x="212" y="35">object-name</text></a></g><path d="M266 31h10"/><path d="M276 31h10"/><g class="terminal"><path d="M286 31h0"/><path d="M330 31h0"/><rect width="44" height="22" x="286" y="20" rx="10" ry="10"/><text x="308" y="35">SET</text></g><path d="M330 31h10"/><path d="M340 31h10"/><g><path d="M350 31h0"/><path d="M542 31h0"/><path d="M350 31h10"/><g><path d="M360 31h0"/><path d="M532 31h0"/><g class="non-terminal"><path d="M360 31h0"/><path d="M412 31h0"/><rect width="52" height="22" x="360" y="20"/><a href="https://rspeele.gitbooks.io/rezoom-sql/doc/Language/Name.html#name"><text x="386" y="35">name</text><text x="386" y="35">name</text></a></g><path d="M412 31h10"/><path d="M422 31h10"/><g class="terminal"><path d="M432 31h0"/><path d="M460 31h0"/><rect width="28" height="22" x="432" y="20" rx="10" ry="10"/><text x="446" y="35">=</text></g><path d="M460 31h10"/><path d="M470 31h10"/><g class="non-terminal"><path d="M480 31h0"/><path d="M532 31h0"/><rect width="52" height="22" x="480" y="20"/><a href="https://rspeele.gitbooks.io/rezoom-sql/doc/Language/Expr.html#expr"><text x="506" y="35">expr</text><text x="506" y="35">expr</text></a></g></g><path d="M532 31h10"/><path d="M360 31a10 10 0 0 0 -10 10v10a10 10 0 0 0 10 10"/><g class="terminal"><path d="M360 61h72"/><path d="M460 61h72"/><rect width="28" height="22" x="432" y="50" rx="10" ry="10"/><text x="446" y="65">,</text></g><path d="M532 61a10 10 0 0 0 10 -10v-10a10 10 0 0 0 -10 -10"/></g></g><path d="M552 31a10 10 0 0 1 10 10v29a10 10 0 0 1 -10 10h-492a10 10 0 0 0 -10 10v0a10 10 0 0 0 10 10"/><g><path d="M60 100h160"/><path d="M392 100h160"/><path d="M220 100h20"/><g><path d="M240 100h132"/></g><path d="M372 100h20"/><path d="M220 100a10 10 0 0 1 10 10v0a10 10 0 0 0 10 10"/><g><path d="M240 120h0"/><path d="M372 120h0"/><g class="terminal"><path d="M240 120h0"/><path d="M300 120h0"/><rect width="60" height="22" x="240" y="109" rx="10" ry="10"/><text x="270" y="124">WHERE</text></g><path d="M300 120h10"/><path d="M310 120h10"/><g class="non-terminal"><path d="M320 120h0"/><path d="M372 120h0"/><rect width="52" height="22" x="320" y="109"/><a href="https://rspeele.gitbooks.io/rezoom-sql/doc/Language/Expr.html#expr"><text x="346" y="124">expr</text><text x="346" y="124">expr</text></a></g></g><path d="M372 120a10 10 0 0 0 10 -10v0a10 10 0 0 1 10 -10"/></g><path d="M552 100h10"/><path d="M562 100h0"/></g><path d="M562 100h10"/><path d="M 572 100 h 20 m -10 -10 v 20 m 10 -20 v 20"/></g></svg>