<svg xmlns="http://www.w3.org/2000/svg" width="652" height="387" class="railroad-diagram" viewBox="0 0 652 387"><g transform="translate(.5 .5)"><style type="text/css">svg.railroad-diagram path,svg.railroad-diagram rect{stroke-width:3;stroke:#000;fill:transparent}svg.railroad-diagram rect{fill:#def}svg.railroad-diagram text{font-family:&quot;Consolas&quot;,&quot;Monospace&quot;;font-size:14px;font-weight:700;text-anchor:middle}svg.railroad-diagram g.non-terminal text{font-style:italic}</style><path d="M 20 21 v 20 m 10 -20 v 20 m -10 -10 h 20.5"/><path d="M40 31h10"/><g><path d="M50 31h0"/><path d="M50 31h10"/><g><path d="M60 31h10"/><path d="M70 31h10"/><g><path d="M80 31h10"/><path d="M562 31h10"/><g class="terminal"><path d="M90 31h0"/><path d="M158 31h0"/><rect width="68" height="22" x="90" y="20" rx="10" ry="10"/><text x="124" y="35">UPDATE</text></g><path d="M158 31h10"/><path d="M168 31h10"/><g class="non-terminal"><path d="M178 31h0"/><path d="M286 31h0"/><rect width="108" height="22" x="178" y="20"/><a href="https://rspeele.gitbooks.io/rezoom-sql/doc/Language/Name.html#object-name"><text x="232" y="35">object-name</text><text x="232" y="35">object-name</text></a></g><path d="M286 31h10"/><path d="M296 31h10"/><g class="terminal"><path d="M306 31h0"/><path d="M350 31h0"/><rect width="44" height="22" x="306" y="20" rx="10" ry="10"/><text x="328" y="35">SET</text></g><path d="M350 31h10"/><path d="M360 31h10"/><g><path d="M370 31h0"/><path d="M562 31h0"/><path d="M370 31h10"/><g><path d="M380 31h0"/><path d="M552 31h0"/><g class="non-terminal"><path d="M380 31h0"/><path d="M432 31h0"/><rect width="52" height="22" x="380" y="20"/><a href="https://rspeele.gitbooks.io/rezoom-sql/doc/Language/Name.html#name"><text x="406" y="35">name</text><text x="406" y="35">name</text></a></g><path d="M432 31h10"/><path d="M442 31h10"/><g class="terminal"><path d="M452 31h0"/><path d="M480 31h0"/><rect width="28" height="22" x="452" y="20" rx="10" ry="10"/><text x="466" y="35">=</text></g><path d="M480 31h10"/><path d="M490 31h10"/><g class="non-terminal"><path d="M500 31h0"/><path d="M552 31h0"/><rect width="52" height="22" x="500" y="20"/><a href="https://rspeele.gitbooks.io/rezoom-sql/doc/Language/Expr.html#expr"><text x="526" y="35">expr</text><text x="526" y="35">expr</text></a></g></g><path d="M552 31h10"/><path d="M380 31a10 10 0 0 0 -10 10v10a10 10 0 0 0 10 10"/><g class="terminal"><path d="M380 61h72"/><path d="M480 61h72"/><rect width="28" height="22" x="452" y="50" rx="10" ry="10"/><text x="466" y="65">,</text></g><path d="M552 61a10 10 0 0 0 10 -10v-10a10 10 0 0 0 -10 -10"/></g></g><path d="M572 31a10 10 0 0 1 10 10v29a10 10 0 0 1 -10 10h-492a10 10 0 0 0 -10 10v0a10 10 0 0 0 10 10"/><g><path d="M80 100h160"/><path d="M412 100h160"/><path d="M240 100h20"/><g><path d="M260 100h132"/></g><path d="M392 100h20"/><path d="M240 100a10 10 0 0 1 10 10v0a10 10 0 0 0 10 10"/><g><path d="M260 120h0"/><path d="M392 120h0"/><g class="terminal"><path d="M260 120h0"/><path d="M320 120h0"/><rect width="60" height="22" x="260" y="109" rx="10" ry="10"/><text x="290" y="124">WHERE</text></g><path d="M320 120h10"/><path d="M330 120h10"/><g class="non-terminal"><path d="M340 120h0"/><path d="M392 120h0"/><rect width="52" height="22" x="340" y="109"/><a href="https://rspeele.gitbooks.io/rezoom-sql/doc/Language/Expr.html#expr"><text x="366" y="124">expr</text><text x="366" y="124">expr</text></a></g></g><path d="M392 120a10 10 0 0 0 10 -10v0a10 10 0 0 1 10 -10"/></g><path d="M572 100h10"/><path d="M582 100h10"/></g><path d="M592 100a10 10 0 0 1 10 10v19a10 10 0 0 1 -10 10h-532a10 10 0 0 0 -10 10v0a10 10 0 0 0 10 10"/><g><path d="M60 159h71"/><path d="M521 159h71"/><path d="M131 159h20"/><g><path d="M151 159h350"/></g><path d="M501 159h20"/><path d="M131 159a10 10 0 0 1 10 10v0a10 10 0 0 0 10 10"/><g><path d="M151 179h0"/><path d="M501 179h0"/><g class="terminal"><path d="M151 179h0"/><path d="M211 179h0"/><rect width="60" height="22" x="151" y="168" rx="10" ry="10"/><text x="181" y="183">ORDER</text></g><path d="M211 179h10"/><path d="M221 179h10"/><g class="terminal"><path d="M231 179h0"/><path d="M267 179h0"/><rect width="36" height="22" x="231" y="168" rx="10" ry="10"/><text x="249" y="183">BY</text></g><path d="M267 179h10"/><path d="M277 179h10"/><g><path d="M287 179h0"/><path d="M501 179h0"/><path d="M287 179h10"/><g><path d="M297 179h0"/><path d="M491 179h0"/><g class="non-terminal"><path d="M297 179h0"/><path d="M349 179h0"/><rect width="52" height="22" x="297" y="168"/><a href="https://rspeele.gitbooks.io/rezoom-sql/doc/Language/Expr.html#expr"><text x="323" y="183">expr</text><text x="323" y="183">expr</text></a></g><path d="M349 179h10"/><g><path d="M359 179h0"/><path d="M491 179h0"/><path d="M359 179h20"/><g><path d="M379 179h92"/></g><path d="M471 179h20"/><path d="M359 179a10 10 0 0 1 10 10v0a10 10 0 0 0 10 10"/><g><path d="M379 199h0"/><path d="M471 199h0"/><path d="M379 199h20"/><g class="terminal"><path d="M399 199h4"/><path d="M447 199h4"/><rect width="44" height="22" x="403" y="188" rx="10" ry="10"/><text x="425" y="203">ASC</text></g><path d="M451 199h20"/><path d="M379 199a10 10 0 0 1 10 10v10a10 10 0 0 0 10 10"/><g class="terminal"><path d="M399 229h0"/><path d="M451 229h0"/><rect width="52" height="22" x="399" y="218" rx="10" ry="10"/><text x="425" y="233">DESC</text></g><path d="M451 229a10 10 0 0 0 10 -10v-10a10 10 0 0 1 10 -10"/></g><path d="M471 199a10 10 0 0 0 10 -10v0a10 10 0 0 1 10 -10"/></g></g><path d="M491 179h10"/><path d="M297 179a10 10 0 0 0 -10 10v60a10 10 0 0 0 10 10"/><g class="terminal"><path d="M297 259h83"/><path d="M408 259h83"/><rect width="28" height="22" x="380" y="248" rx="10" ry="10"/><text x="394" y="263">,</text></g><path d="M491 259a10 10 0 0 0 10 -10v-60a10 10 0 0 0 -10 -10"/></g></g><path d="M501 179a10 10 0 0 0 10 -10v0a10 10 0 0 1 10 -10"/></g><path d="M592 159a10 10 0 0 1 10 10v99a10 10 0 0 1 -10 10h-532a10 10 0 0 0 -10 10v0a10 10 0 0 0 10 10"/><g><path d="M60 298h70"/><path d="M522 298h70"/><path d="M130 298h20"/><g><path d="M150 298h352"/></g><path d="M502 298h20"/><path d="M130 298a10 10 0 0 1 10 10v8a10 10 0 0 0 10 10"/><g><path d="M150 326h0"/><path d="M502 326h0"/><g class="terminal"><path d="M150 326h0"/><path d="M210 326h0"/><rect width="60" height="22" x="150" y="315" rx="10" ry="10"/><text x="180" y="330">LIMIT</text></g><path d="M210 326h10"/><path d="M220 326h10"/><g class="non-terminal"><path d="M230 326h0"/><path d="M282 326h0"/><rect width="52" height="22" x="230" y="315"/><a href="https://rspeele.gitbooks.io/rezoom-sql/doc/Language/Expr.html#expr"><text x="256" y="330">expr</text><text x="256" y="330">expr</text></a></g><path d="M282 326h10"/><g><path d="M292 326h0"/><path d="M502 326h0"/><path d="M292 326a10 10 0 0 0 10 -10v0a10 10 0 0 1 10 -10"/><g><path d="M312 306h170"/></g><path d="M482 306a10 10 0 0 1 10 10v0a10 10 0 0 0 10 10"/><path d="M292 326h20"/><g><path d="M312 326h0"/><path d="M482 326h0"/><g><path d="M312 326h0"/><path d="M420 326h0"/><path d="M312 326h20"/><g class="terminal"><path d="M332 326h0"/><path d="M400 326h0"/><rect width="68" height="22" x="332" y="315" rx="10" ry="10"/><text x="366" y="330">OFFSET</text></g><path d="M400 326h20"/><path d="M312 326a10 10 0 0 1 10 10v10a10 10 0 0 0 10 10"/><g class="terminal"><path d="M332 356h20"/><path d="M380 356h20"/><rect width="28" height="22" x="352" y="345" rx="10" ry="10"/><text x="366" y="360">,</text></g><path d="M400 356a10 10 0 0 0 10 -10v-10a10 10 0 0 1 10 -10"/></g><path d="M420 326h10"/><g class="non-terminal"><path d="M430 326h0"/><path d="M482 326h0"/><rect width="52" height="22" x="430" y="315"/><a href="https://rspeele.gitbooks.io/rezoom-sql/doc/Language/Expr.html#expr"><text x="456" y="330">expr</text><text x="456" y="330">expr</text></a></g></g><path d="M482 326h20"/></g></g><path d="M502 326a10 10 0 0 0 10 -10v-8a10 10 0 0 1 10 -10"/></g><path d="M592 298h10"/><path d="M602 298h0"/></g><path d="M602 298h10"/><path d="M 612 298 h 20 m -10 -10 v 20 m 10 -20 v 20"/></g></svg>