<svg xmlns="http://www.w3.org/2000/svg" width="452" height="248" class="railroad-diagram" viewBox="0 0 452 248"><g transform="translate(.5 .5)"><style type="text/css">svg.railroad-diagram path,svg.railroad-diagram rect{stroke-width:3;stroke:#000;fill:transparent}svg.railroad-diagram rect{fill:#def}svg.railroad-diagram text{font-family:&quot;Consolas&quot;,&quot;Monospace&quot;;font-size:14px;font-weight:700;text-anchor:middle}svg.railroad-diagram g.non-terminal text{font-style:italic}</style><path d="M 20 21 v 20 m 10 -20 v 20 m -10 -10 h 20.5"/><g><path d="M40 31h0"/><path d="M412 31h0"/><path d="M40 31h20"/><g><path d="M60 31h128"/><path d="M264 31h128"/><path d="M188 31h20"/><g class="terminal"><path d="M208 31h4"/><path d="M240 31h4"/><rect width="28" height="22" x="212" y="20" rx="10" ry="10"/></g><path d="M244 31h20"/><path d="M188 31a10 10 0 0 1 10 10v10a10 10 0 0 0 10 10"/><g class="terminal"><path d="M208 61h0"/><path d="M244 61h0"/><rect width="36" height="22" x="208" y="50" rx="10" ry="10"/><text x="226" y="65">\r</text></g><path d="M244 61a10 10 0 0 0 10 -10v-10a10 10 0 0 1 10 -10"/><path d="M188 31a10 10 0 0 1 10 10v40a10 10 0 0 0 10 10"/><g class="terminal"><path d="M208 91h0"/><path d="M244 91h0"/><rect width="36" height="22" x="208" y="80" rx="10" ry="10"/><text x="226" y="95">\n</text></g><path d="M244 91a10 10 0 0 0 10 -10v-40a10 10 0 0 1 10 -10"/><path d="M188 31a10 10 0 0 1 10 10v70a10 10 0 0 0 10 10"/><g class="terminal"><path d="M208 121h0"/><path d="M244 121h0"/><rect width="36" height="22" x="208" y="110" rx="10" ry="10"/><text x="226" y="125">\t</text></g><path d="M244 121a10 10 0 0 0 10 -10v-70a10 10 0 0 1 10 -10"/></g><path d="M392 31h20"/><path d="M40 31a10 10 0 0 1 10 10v109a10 10 0 0 0 10 10"/><g><path d="M60 160h0"/><path d="M392 160h0"/><g class="terminal"><path d="M60 160h0"/><path d="M96 160h0"/><rect width="36" height="22" x="60" y="149" rx="10" ry="10"/><text x="78" y="164">--</text></g><path d="M96 160h10"/><g><path d="M106 160h0"/><path d="M346 160h0"/><path d="M106 160a10 10 0 0 0 10 -10v0a10 10 0 0 1 10 -10"/><g><path d="M126 140h200"/></g><path d="M326 140a10 10 0 0 1 10 10v0a10 10 0 0 0 10 10"/><path d="M106 160h20"/><g><path d="M126 160h0"/><path d="M326 160h0"/><path d="M126 160h10"/><g class="non-terminal"><path d="M136 160h0"/><path d="M316 160h0"/><rect width="180" height="22" x="136" y="149"/><text x="226" y="164">anything-but-newline</text></g><path d="M316 160h10"/><path d="M136 160a10 10 0 0 0 -10 10v0a10 10 0 0 0 10 10"/><g><path d="M136 180h180"/></g><path d="M316 180a10 10 0 0 0 10 -10v0a10 10 0 0 0 -10 -10"/></g><path d="M326 160h20"/></g><path d="M346 160h10"/><g class="terminal"><path d="M356 160h0"/><path d="M392 160h0"/><rect width="36" height="22" x="356" y="149" rx="10" ry="10"/><text x="374" y="164">\n</text></g></g><path d="M392 160a10 10 0 0 0 10 -10v-109a10 10 0 0 1 10 -10"/><path d="M40 31a10 10 0 0 1 10 10v157a10 10 0 0 0 10 10"/><g><path d="M60 208h20"/><path d="M372 208h20"/><g class="terminal"><path d="M80 208h0"/><path d="M116 208h0"/><rect width="36" height="22" x="80" y="197" rx="10" ry="10"/><text x="98" y="212">/*</text></g><path d="M116 208h10"/><g><path d="M126 208h0"/><path d="M326 208h0"/><path d="M126 208a10 10 0 0 0 10 -10v0a10 10 0 0 1 10 -10"/><g><path d="M146 188h160"/></g><path d="M306 188a10 10 0 0 1 10 10v0a10 10 0 0 0 10 10"/><path d="M126 208h20"/><g><path d="M146 208h0"/><path d="M306 208h0"/><path d="M146 208h10"/><g class="non-terminal"><path d="M156 208h0"/><path d="M296 208h0"/><rect width="140" height="22" x="156" y="197"/><text x="226" y="212">anything-but-*/</text></g><path d="M296 208h10"/><path d="M156 208a10 10 0 0 0 -10 10v0a10 10 0 0 0 10 10"/><g><path d="M156 228h140"/></g><path d="M296 228a10 10 0 0 0 10 -10v0a10 10 0 0 0 -10 -10"/></g><path d="M306 208h20"/></g><path d="M326 208h10"/><g class="terminal"><path d="M336 208h0"/><path d="M372 208h0"/><rect width="36" height="22" x="336" y="197" rx="10" ry="10"/><text x="354" y="212">*/</text></g></g><path d="M392 208a10 10 0 0 0 10 -10v-157a10 10 0 0 1 10 -10"/></g><path d="M 412 31 h 20 m -10 -10 v 20 m 10 -20 v 20"/></g></svg>