<svg xmlns="http://www.w3.org/2000/svg" xmlns:xlink="http://www.w3.org/1999/xlink" width="598pt" height="304pt" viewBox="0 0 598 304"><g id="graph0" class="graph" transform="scale(1 1) rotate(0) translate(4 300)"><title>Migration Tree 2</title><polygon fill="#fff" stroke="none" points="-4 4 -4 -300 594 -300 594 4 -4 4"/><g id="clust4" class="cluster"><title>cluster_v4</title><polygon fill="none" stroke="#000" points="455.5 -8 455.5 -60 563.5 -60 563.5 -8 455.5 -8"/></g><g id="clust1" class="cluster"><title>cluster_v1</title><polygon fill="none" stroke="#000" points="8 -182 8 -234 131 -234 131 -182 8 -182"/></g><g id="clust2" class="cluster"><title>cluster_v2</title><polygon fill="none" stroke="#000" points="151 -182 151 -288 578.5 -288 578.5 -182 151 -182"/></g><g id="clust3" class="cluster"><title>cluster_v3</title><polygon fill="none" stroke="#000" points="290.5 -68 290.5 -174 582 -174 582 -68 290.5 -68"/></g><g id="node1" class="node"><title>model</title><polygon fill="none" stroke="none" points="123 -226 16 -226 16 -190 123 -190 123 -226"/><text x="69.5" y="-204.3" font-family="Consolas" font-size="14" text-anchor="middle">V1.model.sql</text></g><g id="node2" class="node"><title>foo</title><polygon fill="none" stroke="none" points="251 -226 159 -226 159 -190 251 -190 251 -226"/><text x="205" y="-204.3" font-family="Consolas" font-size="14" text-anchor="middle">V2.foo.sql</text></g><g id="edge6" class="edge"><title>model-&gt;foo</title><path fill="none" stroke="red" d="M123.263,-208C131.657,-208 140.36,-208 148.808,-208"/><polygon fill="red" stroke="red" points="148.948 -211.5 158.948 -208 148.948 -204.5 148.948 -211.5"/></g><g id="node3" class="node"><title>bar</title><polygon fill="none" stroke="none" points="409 -226 287 -226 287 -190 409 -190 409 -226"/><text x="348" y="-204.3" font-family="Consolas" font-size="14" text-anchor="middle">V2.foo-bar.sql</text></g><g id="edge1" class="edge"><title>foo-&gt;bar</title><path fill="none" stroke="#000" d="M251.001,-208C259.227,-208 267.988,-208 276.744,-208"/><polygon fill="#000" stroke="#000" points="276.988 -211.5 286.988 -208 276.988 -204.5 276.988 -211.5"/></g><g id="node4" class="node"><title>baz</title><polygon fill="none" stroke="none" points="409 -280 287 -280 287 -244 409 -244 409 -280"/><text x="348" y="-258.3" font-family="Consolas" font-size="14" text-anchor="middle">V2.foo-baz.sql</text></g><g id="edge2" class="edge"><title>foo-&gt;baz</title><path fill="none" stroke="#000" d="M251.001,-225.234C263.583,-230.053 277.416,-235.351 290.569,-240.388"/><polygon fill="#000" stroke="#000" points="289.408 -243.691 299.999 -243.999 291.912 -237.154 289.408 -243.691"/></g><g id="node6" class="node"><title>zorp</title><polygon fill="none" stroke="none" points="397.5 -139 298.5 -139 298.5 -103 397.5 -103 397.5 -139"/><text x="348" y="-117.3" font-family="Consolas" font-size="14" text-anchor="middle">V3.zorp.sql</text></g><g id="edge7" class="edge"><title>foo-&gt;zorp</title><path fill="none" stroke="red" d="M235.215,-189.974C256.673,-176.734 286.009,-158.633 309.245,-144.296"/><polygon fill="red" stroke="red" points="311.15 -147.233 317.822 -139.003 307.474 -141.276 311.15 -147.233"/></g><g id="node5" class="node"><title>qux</title><polygon fill="none" stroke="none" points="570.5 -280 448.5 -280 448.5 -244 570.5 -244 570.5 -280"/><text x="509.5" y="-258.3" font-family="Consolas" font-size="14" text-anchor="middle">V2.baz-qux.sql</text></g><g id="edge3" class="edge"><title>baz-&gt;qux</title><path fill="none" stroke="#000" d="M409.3,-262C418.794,-262 428.679,-262 438.372,-262"/><polygon fill="#000" stroke="#000" points="438.379 -265.5 448.379 -262 438.379 -258.5 438.379 -265.5"/></g><g id="node7" class="node"><title>zfoo</title><polygon fill="none" stroke="none" points="574 -112 445 -112 445 -76 574 -76 574 -112"/><text x="509.5" y="-90.3" font-family="Consolas" font-size="14" text-anchor="middle">V3.zorp-foo.sql</text></g><g id="edge4" class="edge"><title>zorp-&gt;zfoo</title><path fill="none" stroke="#000" d="M397.722,-112.752C409.433,-110.77 422.201,-108.609 434.769,-106.481"/><polygon fill="#000" stroke="#000" points="435.505 -109.906 444.781 -104.786 434.337 -103.005 435.505 -109.906"/></g><g id="node8" class="node"><title>zbar</title><polygon fill="none" stroke="none" points="574 -166 445 -166 445 -130 574 -130 574 -166"/><text x="509.5" y="-144.3" font-family="Consolas" font-size="14" text-anchor="middle">V3.zorp-bar.sql</text></g><g id="edge5" class="edge"><title>zorp-&gt;zbar</title><path fill="none" stroke="#000" d="M397.722,-129.248C409.433,-131.23 422.201,-133.391 434.769,-135.519"/><polygon fill="#000" stroke="#000" points="434.337 -138.995 444.781 -137.214 435.505 -132.094 434.337 -138.995"/></g><g id="node9" class="node"><title>kro</title><polygon fill="none" stroke="none" points="555.5 -52 463.5 -52 463.5 -16 555.5 -16 555.5 -52"/><text x="509.5" y="-30.3" font-family="Consolas" font-size="14" text-anchor="middle">V4.kro.sql</text></g><g id="edge8" class="edge"><title>zorp-&gt;kro</title><path fill="none" stroke="red" d="M378.001,-102.809C396.838,-91.2371 422.066,-76.1913 445,-64 449.592,-61.5588 454.417,-59.0982 459.27,-56.6925"/><polygon fill="red" stroke="red" points="461.127 -59.681 468.582 -52.153 458.059 -53.389 461.127 -59.681"/></g></g></svg>