<svg xmlns="http://www.w3.org/2000/svg" xmlns:xlink="http://www.w3.org/1999/xlink" width="788" height="76pt" viewBox="0 0 591 76"><g id="graph0" class="graph" transform="scale(1 1) rotate(0) translate(4 72)"><title>Migration Tree 2</title><polygon fill="#fff" stroke="none" points="-4 4 -4 -72 587 -72 587 4 -4 4"/><g id="clust1" class="cluster"><title>cluster_v1</title><polygon fill="none" stroke="#000" points="8 -8 8 -60 131 -60 131 -8 8 -8"/></g><g id="clust2" class="cluster"><title>cluster_v2</title><polygon fill="none" stroke="#000" points="151 -8 151 -60 575 -60 575 -8 151 -8"/></g><g id="node1" class="node"><title>model</title><polygon fill="none" stroke="none" points="123 -52 16 -52 16 -16 123 -16 123 -52"/><text x="69.5" y="-30.3" font-family="Consolas" font-size="14" text-anchor="middle">V1.model.sql</text></g><g id="node2" class="node"><title>foo</title><polygon fill="none" stroke="none" points="251 -52 159 -52 159 -16 251 -16 251 -52"/><text x="205" y="-30.3" font-family="Consolas" font-size="14" text-anchor="middle">V2.foo.sql</text></g><g id="edge3" class="edge"><title>model-&gt;foo</title><path fill="none" stroke="red" d="M123.263,-34C131.657,-34 140.36,-34 148.808,-34"/><polygon fill="red" stroke="red" points="148.948 -37.5 158.948 -34 148.948 -30.5 148.948 -37.5"/></g><g id="node3" class="node"><title>bar</title><polygon fill="none" stroke="none" points="409 -52 287 -52 287 -16 409 -16 409 -52"/><text x="348" y="-30.3" font-family="Consolas" font-size="14" text-anchor="middle">V2.foo-bar.sql</text></g><g id="edge1" class="edge"><title>foo-&gt;bar</title><path fill="none" stroke="#000" d="M251.001,-34C259.227,-34 267.988,-34 276.744,-34"/><polygon fill="#000" stroke="#000" points="276.988 -37.5 286.988 -34 276.988 -30.5 276.988 -37.5"/></g><g id="node4" class="node"><title>baz</title><polygon fill="none" stroke="none" points="567 -52 445 -52 445 -16 567 -16 567 -52"/><text x="506" y="-30.3" font-family="Consolas" font-size="14" text-anchor="middle">V2.bar-baz.sql</text></g><g id="edge2" class="edge"><title>bar-&gt;baz</title><path fill="none" stroke="#000" d="M409.314,-34C417.604,-34 426.175,-34 434.626,-34"/><polygon fill="#000" stroke="#000" points="434.847 -37.5 444.847 -34 434.847 -30.5 434.847 -37.5"/></g></g></svg>