<svg xmlns="http://www.w3.org/2000/svg" xmlns:xlink="http://www.w3.org/1999/xlink" width="433pt" height="130pt" viewBox="0 0 433 130"><g id="graph0" class="graph" transform="scale(1 1) rotate(0) translate(4 126)"><title>Migration Tree 2</title><polygon fill="#fff" stroke="none" points="-4 4 -4 -126 429 -126 429 4 -4 4"/><g id="clust1" class="cluster"><title>cluster_v1</title><polygon fill="none" stroke="#000" points="8 -22 8 -74 131 -74 131 -22 8 -22"/></g><g id="clust2" class="cluster"><title>cluster_v2</title><polygon fill="none" stroke="#000" points="151 -8 151 -114 417 -114 417 -8 151 -8"/></g><g id="node1" class="node"><title>model</title><polygon fill="none" stroke="none" points="123 -66 16 -66 16 -30 123 -30 123 -66"/><text x="69.5" y="-44.3" font-family="Consolas" font-size="14" text-anchor="middle">V1.model.sql</text></g><g id="node2" class="node"><title>foo</title><polygon fill="none" stroke="none" points="251 -66 159 -66 159 -30 251 -30 251 -66"/><text x="205" y="-44.3" font-family="Consolas" font-size="14" text-anchor="middle">V2.foo.sql</text></g><g id="edge3" class="edge"><title>model-&gt;foo</title><path fill="none" stroke="red" d="M123.263,-48C131.657,-48 140.36,-48 148.808,-48"/><polygon fill="red" stroke="red" points="148.948 -51.5 158.948 -48 148.948 -44.5 148.948 -51.5"/></g><g id="node3" class="node"><title>bar</title><polygon fill="none" stroke="none" points="409 -52 287 -52 287 -16 409 -16 409 -52"/><text x="348" y="-30.3" font-family="Consolas" font-size="14" text-anchor="middle">V2.foo-bar.sql</text></g><g id="edge1" class="edge"><title>foo-&gt;bar</title><path fill="none" stroke="#000" d="M251.001,-43.5318C259.316,-42.7062 268.178,-41.8263 277.029,-40.9475"/><polygon fill="#000" stroke="#000" points="277.382 -44.43 286.988 -39.959 276.691 -37.464 277.382 -44.43"/></g><g id="node4" class="node"><title>baz</title><polygon fill="none" stroke="none" points="409 -106 287 -106 287 -70 409 -70 409 -106"/><text x="348" y="-84.3" font-family="Consolas" font-size="14" text-anchor="middle">V2.foo-baz.sql</text></g><g id="edge2" class="edge"><title>foo-&gt;baz</title><path fill="none" stroke="#000" d="M251.001,-60.7662C259.405,-63.1505 268.369,-65.6933 277.315,-68.2311"/><polygon fill="#000" stroke="#000" points="276.412 -71.613 286.988 -70.975 278.323 -64.879 276.412 -71.613"/></g></g></svg>